ServerMono-Regular-Italic.ufo
<glyph name="quotedbl" format="2">
  <advance width="630"/>
  <unicode hex="0022"/>
  <outline>
    <contour>
      <point x="271" y="710" type="line"/>
      <point x="243" y="500" type="line"/>
      <point x="303" y="500" type="line"/>
      <point x="351" y="710" type="line"/>
    </contour>
    <contour>
      <point x="441" y="710" type="line"/>
      <point x="413" y="500" type="line"/>
      <point x="473" y="500" type="line"/>
      <point x="521" y="710" type="line"/>
    </contour>
  </outline>
</glyph>
<glyph name="numbersign" format="2">
  <advance width="630"/>
  <unicode hex="0023"/>
  <outline>
    <contour>
      <point x="277" y="0" type="line"/>
      <point x="360" y="0" type="line"/>
      <point x="592" y="700" type="line"/>
      <point x="509" y="700" type="line"/>
    </contour>
    <contour>
      <point x="71" y="0" type="line"/>
      <point x="154" y="0" type="line"/>
      <point x="386" y="700" type="line"/>
      <point x="303" y="700" type="line"/>
    </contour>
    <contour>
      <point x="108" y="426" type="line"/>
      <point x="604" y="426" type="line"/>
      <point x="628" y="500" type="line"/>
      <point x="132" y="500" type="line"/>
    </contour>
    <contour>
      <point x="34" y="200" type="line"/>
      <point x="530" y="200" type="line"/>
      <point x="554" y="274" type="line"/>
      <point x="58" y="274" type="line"/>
    </contour>
  </outline>
</glyph>
<glyph name="percent" format="2">
  <advance width="630"/>
  <unicode hex="0025"/>
  <outline>
    <contour>
      <point x="574" y="700" type="line"/>
      <point x="9" y="0" type="line"/>
      <point x="103" y="0" type="line"/>
      <point x="668" y="700" type="line"/>
    </contour>
    <contour>
      <point x="213.718" y="438.013" type="curve" smooth="yes"/>
      <point x="287.788" y="438.013"/>
      <point x="354.999" y="495.623"/>
      <point x="367.344" y="569.692" type="curve" smooth="yes"/>
      <point x="381.061" y="643.762"/>
      <point x="334.424" y="700"/>
      <point x="260.355" y="700" type="curve" smooth="yes"/>
      <point x="184.913" y="700"/>
      <point x="119.074" y="643.762"/>
      <point x="105.357" y="569.692" type="curve" smooth="yes"/>
      <point x="93.0124" y="495.623"/>
      <point x="138.277" y="438.013"/>
    </contour>
    <contour>
      <point x="227.435" y="513.455" type="curve" smooth="yes"/>
      <point x="194.515" y="513.455"/>
      <point x="175.312" y="538.144"/>
      <point x="180.799" y="569.692" type="curve" smooth="yes"/>
      <point x="186.285" y="601.241"/>
      <point x="213.718" y="624.559"/>
      <point x="246.638" y="624.559" type="curve" smooth="yes"/>
      <point x="278.186" y="624.559"/>
      <point x="297.389" y="601.241"/>
      <point x="291.903" y="569.692" type="curve" smooth="yes"/>
      <point x="286.416" y="538.144"/>
      <point x="258.983" y="513.455"/>
    </contour>
    <contour>
      <point x="425.405" y="5.68434e-13" type="curve" smooth="yes"/>
      <point x="499.474" y="5.68434e-13"/>
      <point x="566.685" y="57.6096"/>
      <point x="579.03" y="131.679" type="curve" smooth="yes"/>
      <point x="592.747" y="205.749"/>
      <point x="546.111" y="261.987"/>
      <point x="472.041" y="261.987" type="curve" smooth="yes"/>
      <point x="396.6" y="261.987"/>
      <point x="330.76" y="205.749"/>
      <point x="317.044" y="131.679" type="curve" smooth="yes"/>
      <point x="304.699" y="57.6096"/>
      <point x="349.963" y="5.68434e-13"/>
    </contour>
    <contour>
      <point x="439.121" y="75.4412" type="curve" smooth="yes"/>
      <point x="406.201" y="75.4412"/>
      <point x="386.998" y="100.131"/>
      <point x="392.485" y="131.679" type="curve" smooth="yes"/>
      <point x="397.972" y="163.227"/>
      <point x="425.405" y="186.545"/>
      <point x="458.324" y="186.545" type="curve" smooth="yes"/>
      <point x="489.873" y="186.545"/>
      <point x="509.076" y="163.227"/>
      <point x="503.589" y="131.679" type="curve" smooth="yes"/>
      <point x="498.103" y="100.131"/>
      <point x="470.669" y="75.4412"/>
    </contour>
  </outline>
</glyph>
<glyph name="ampersand" format="2">
  <advance width="630"/>
  <unicode hex="0026"/>
  <outline>
    <contour>
      <point x="203" y="-5" type="curve" smooth="yes"/>
      <point x="285" y="-5"/>
      <point x="343" y="25"/>
      <point x="379" y="65" type="curve"/>
      <point x="387" y="65" type="line"/>
      <point x="379" y="20"/>
      <point x="399" y="0"/>
      <point x="438" y="0" type="curve" smooth="yes"/>
      <point x="567" y="0" type="line"/>
      <point x="581" y="80" type="line"/>
      <point x="475" y="80" type="line"/>
      <point x="546" y="482" type="line" smooth="yes"/>
      <point x="572" y="627"/>
      <point x="488" y="710"/>
      <point x="344" y="710" type="curve" smooth="yes"/>
      <point x="198" y="710"/>
      <point x="117" y="619"/>
      <point x="117" y="509" type="curve" smooth="yes"/>
      <point x="117" y="439"/>
      <point x="147" y="393"/>
      <point x="193" y="370" type="curve"/>
      <point x="192" y="362" type="line"/>
      <point x="92" y="331"/>
      <point x="32" y="251"/>
      <point x="32" y="153" type="curve" smooth="yes"/>
      <point x="32" y="61"/>
      <point x="95" y="-5"/>
    </contour>
    <contour>
      <point x="253" y="75" type="curve" smooth="yes"/>
      <point x="172" y="75"/>
      <point x="136" y="118"/>
      <point x="136" y="183" type="curve" smooth="yes"/>
      <point x="136" y="268"/>
      <point x="212" y="325"/>
      <point x="316" y="325" type="curve" smooth="yes"/>
      <point x="624" y="325" type="line"/>
      <point x="638" y="405" type="line"/>
      <point x="335" y="405" type="line" smooth="yes"/>
      <point x="249" y="405"/>
      <point x="213" y="447"/>
      <point x="213" y="507" type="curve" smooth="yes"/>
      <point x="213" y="572"/>
      <point x="261" y="624"/>
      <point x="346" y="624" type="curve" smooth="yes"/>
      <point x="426" y="624"/>
      <point x="469" y="578"/>
      <point x="452" y="482" type="curve" smooth="yes"/>
      <point x="404" y="210" type="line" smooth="yes"/>
      <point x="386" y="110"/>
      <point x="319" y="75"/>
    </contour>
  </outline>
</glyph>
<glyph name="quotesingle" format="2">
  <advance width="630"/>
  <unicode hex="0027"/>
  <outline>
    <contour>
      <point x="356" y="710" type="line"/>
      <point x="328" y="500" type="line"/>
      <point x="388" y="500" type="line"/>
      <point x="436" y="710" type="line"/>
    </contour>
  </outline>
</glyph>
<glyph name="parenleft" format="2">
  <advance width="630"/>
  <unicode hex="0028"/>
  <outline>
    <contour>
      <point x="273" y="-105" type="curve"/>
      <point x="369" y="-105" type="line"/>
      <point x="240" y="174"/>
      <point x="300" y="514"/>
      <point x="527" y="795" type="curve"/>
      <point x="431" y="795" type="line"/>
      <point x="203" y="515"/>
      <point x="143" y="175"/>
    </contour>
  </outline>
</glyph>
<glyph name="asterisk" format="2">
  <advance width="630"/>
  <unicode hex="002A"/>
  <outline>
    <contour>
      <point x="305" y="376" type="line"/>
      <point x="371" y="376" type="line"/>
      <point x="378" y="416" type="line"/>
      <point x="387" y="487" type="line"/>
      <point x="391" y="489" type="line"/>
      <point x="441" y="449" type="line"/>
      <point x="473" y="429" type="line"/>
      <point x="515" y="485" type="line"/>
      <point x="483" y="505" type="line"/>
      <point x="426" y="536" type="line"/>
      <point x="426" y="540" type="line"/>
      <point x="495" y="571" type="line"/>
      <point x="533" y="591" type="line"/>
      <point x="511" y="647" type="line"/>
      <point x="473" y="627" type="line"/>
      <point x="409" y="587" type="line"/>
      <point x="405" y="589" type="line"/>
      <point x="422" y="660" type="line"/>
      <point x="429" y="700" type="line"/>
      <point x="363" y="700" type="line"/>
      <point x="356" y="660" type="line"/>
      <point x="347" y="589" type="line"/>
      <point x="343" y="587" type="line"/>
      <point x="293" y="627" type="line"/>
      <point x="261" y="647" type="line"/>
      <point x="219" y="591" type="line"/>
      <point x="251" y="571" type="line"/>
      <point x="308" y="540" type="line"/>
      <point x="308" y="536" type="line"/>
      <point x="239" y="505" type="line"/>
      <point x="201" y="485" type="line"/>
      <point x="223" y="429" type="line"/>
      <point x="261" y="449" type="line"/>
      <point x="325" y="489" type="line"/>
      <point x="329" y="487" type="line"/>
      <point x="312" y="416" type="line"/>
    </contour>
  </outline>
</glyph>
<glyph name="plus" format="2">
  <advance width="630"/>
  <unicode hex="002B"/>
  <outline>
    <contour>
      <point x="251" y="94" type="line"/>
      <point x="325" y="94" type="line"/>
      <point x="397" y="499" type="line"/>
      <point x="323" y="499" type="line"/>
    </contour>
    <contour>
      <point x="115" y="260" type="line"/>
      <point x="520" y="260" type="line"/>
      <point x="533" y="334" type="line"/>
      <point x="128" y="334" type="line"/>
    </contour>
  </outline>
</glyph>
<glyph name="comma" format="2">
  <advance width="630"/>
  <unicode hex="002C"/>
  <outline>
    <contour>
      <point x="211" y="60" type="curve" smooth="yes"/>
      <point x="204" y="22"/>
      <point x="224" y="-2"/>
      <point x="248" y="-9" type="curve"/>
      <point x="179" y="-134" type="line"/>
      <point x="227" y="-134" type="line"/>
      <point x="319" y="-11" type="line" smooth="yes"/>
      <point x="390" y="82"/>
      <point x="343" y="130"/>
      <point x="299" y="130" type="curve" smooth="yes"/>
      <point x="258" y="130"/>
      <point x="218" y="102"/>
    </contour>
  </outline>
</glyph>
<glyph name="hyphen" format="2">
  <advance width="630"/>
  <unicode hex="002D"/>
  <outline>
    <contour>
      <point x="176" y="230" type="line"/>
      <point x="446" y="230" type="line"/>
      <point x="460" y="304" type="line"/>
      <point x="190" y="304" type="line"/>
    </contour>
  </outline>
</glyph>
<glyph name="period" format="2">
  <advance width="630"/>
  <unicode hex="002E"/>
  <anchor x="273" y="0" name="_dot"/>
  <outline>
    <contour>
      <point x="270" y="-10" type="curve" smooth="yes"/>
      <point x="308" y="-10"/>
      <point x="345" y="19"/>
      <point x="353" y="60" type="curve" smooth="yes"/>
      <point x="359" y="97"/>
      <point x="335" y="130"/>
      <point x="295" y="130" type="curve" smooth="yes"/>
      <point x="257" y="130"/>
      <point x="219" y="99"/>
      <point x="213" y="60" type="curve" smooth="yes"/>
      <point x="206" y="21"/>
      <point x="230" y="-10"/>
    </contour>
  </outline>
</glyph>
<glyph name="zero" format="2">
  <advance width="630"/>
  <unicode hex="0030"/>
  <outline>
    <contour>
      <point x="284" y="-10" type="curve" smooth="yes"/>
      <point x="529" y="-10"/>
      <point x="610" y="282"/>
      <point x="610" y="455" type="curve" smooth="yes"/>
      <point x="610" y="623"/>
      <point x="528" y="710"/>
      <point x="391" y="710" type="curve" smooth="yes"/>
      <point x="145" y="710"/>
      <point x="64" y="419"/>
      <point x="64" y="245" type="curve" smooth="yes"/>
      <point x="64" y="77"/>
      <point x="146" y="-10"/>
    </contour>
    <contour>
      <point x="295" y="73" type="curve" smooth="yes"/>
      <point x="202" y="73"/>
      <point x="162" y="136"/>
      <point x="162" y="244" type="curve" smooth="yes"/>
      <point x="162" y="365"/>
      <point x="207" y="627"/>
      <point x="380" y="627" type="curve" smooth="yes"/>
      <point x="472" y="627"/>
      <point x="512" y="564"/>
      <point x="512" y="457" type="curve" smooth="yes"/>
      <point x="512" y="332"/>
      <point x="466" y="73"/>
    </contour>
    <contour>
      <point x="199" y="66" type="line"/>
      <point x="527" y="579" type="line"/>
      <point x="475" y="634" type="line"/>
      <point x="149" y="125" type="line"/>
    </contour>
  </outline>
</glyph>
<glyph name="one" format="2">
  <advance width="630"/>
  <unicode hex="0031"/>
  <outline>
    <contour>
      <point x="56" y="0" type="line"/>
      <point x="486" y="0" type="line"/>
      <point x="501" y="86" type="line"/>
      <point x="334" y="86" type="line"/>
      <point x="443" y="700" type="line"/>
      <point x="357" y="700" type="line"/>
      <point x="155" y="560" type="line"/>
      <point x="137" y="456" type="line"/>
      <point x="318" y="580" type="line"/>
      <point x="326" y="580" type="line"/>
      <point x="238" y="86" type="line"/>
      <point x="71" y="86" type="line"/>
    </contour>
  </outline>
</glyph>
<glyph name="two" format="2">
  <advance width="630"/>
  <unicode hex="0032"/>
  <outline>
    <contour>
      <point x="205" y="89" type="line"/>
      <point x="207" y="97" type="line"/>
      <point x="360" y="218" type="line" smooth="yes"/>
      <point x="474" y="308"/>
      <point x="589" y="403"/>
      <point x="589" y="545" type="curve" smooth="yes"/>
      <point x="589" y="649"/>
      <point x="513" y="710"/>
      <point x="393" y="710" type="curve" smooth="yes"/>
      <point x="241" y="710"/>
      <point x="136" y="609"/>
      <point x="121" y="433" type="curve"/>
      <point x="82" y="469" type="line"/>
      <point x="266" y="469" type="line"/>
      <point x="217" y="432" type="line"/>
      <point x="225" y="549"/>
      <point x="280" y="624"/>
      <point x="377" y="624" type="curve" smooth="yes"/>
      <point x="445" y="624"/>
      <point x="488" y="587"/>
      <point x="488" y="528" type="curve" smooth="yes"/>
      <point x="488" y="419"/>
      <point x="371" y="336"/>
      <point x="287" y="267" type="curve" smooth="yes"/>
      <point x="66" y="89" type="line"/>
      <point x="50" y="0" type="line"/>
      <point x="501" y="0" type="line"/>
      <point x="517" y="89" type="line"/>
    </contour>
  </outline>
</glyph>
<glyph name="three" format="2">
  <advance width="630"/>
  <unicode hex="0033"/>
  <outline>
    <contour>
      <point x="468" y="354" type="curve"/>
      <point x="469" y="362" type="line"/>
      <point x="562" y="401"/>
      <point x="600" y="472"/>
      <point x="600" y="543" type="curve" smooth="yes"/>
      <point x="600" y="647"/>
      <point x="517" y="710"/>
      <point x="390" y="710" type="curve" smooth="yes"/>
      <point x="245" y="710"/>
      <point x="148" y="612"/>
      <point x="138" y="473" type="curve"/>
      <point x="99" y="503" type="line"/>
      <point x="283" y="503" type="line"/>
      <point x="235" y="469" type="line"/>
      <point x="241" y="568"/>
      <point x="298" y="626"/>
      <point x="385" y="626" type="curve" smooth="yes"/>
      <point x="459" y="626"/>
      <point x="500" y="586"/>
      <point x="500" y="528" type="curve" smooth="yes"/>
      <point x="500" y="470"/>
      <point x="459" y="400"/>
      <point x="357" y="400" type="curve" smooth="yes"/>
      <point x="300" y="400" type="line"/>
      <point x="285" y="314" type="line"/>
      <point x="323" y="314" type="line" smooth="yes"/>
      <point x="413" y="314"/>
      <point x="450" y="268"/>
      <point x="450" y="200" type="curve" smooth="yes"/>
      <point x="450" y="132"/>
      <point x="399" y="74"/>
      <point x="303" y="74" type="curve" smooth="yes"/>
      <point x="212" y="74"/>
      <point x="153" y="134"/>
      <point x="171" y="226" type="curve"/>
      <point x="211" y="195" type="line"/>
      <point x="27" y="195" type="line"/>
      <point x="75" y="227" type="line"/>
      <point x="39" y="75"/>
      <point x="154" y="-10"/>
      <point x="297" y="-10" type="curve" smooth="yes"/>
      <point x="450" y="-10"/>
      <point x="552" y="74"/>
      <point x="552" y="214" type="curve" smooth="yes"/>
      <point x="552" y="288"/>
      <point x="513" y="335"/>
    </contour>
  </outline>
</glyph>
<glyph name="four" format="2">
  <advance width="630"/>
  <unicode hex="0034"/>
  <outline>
    <contour>
      <point x="334" y="0" type="line"/>
      <point x="426" y="0" type="line"/>
      <point x="550" y="700" type="line"/>
      <point x="450" y="700" type="line"/>
      <point x="49" y="228" type="line"/>
      <point x="34" y="140" type="line"/>
      <point x="555" y="140" type="line"/>
      <point x="570" y="223" type="line"/>
      <point x="150" y="223" type="line"/>
      <point x="423" y="548" type="line"/>
      <point x="431" y="548" type="line"/>
    </contour>
  </outline>
</glyph>
<glyph name="five" format="2">
  <advance width="630"/>
  <unicode hex="0035"/>
  <outline>
    <contour>
      <point x="289" y="-10" type="curve" smooth="yes"/>
      <point x="456" y="-10"/>
      <point x="561" y="94"/>
      <point x="561" y="266" type="curve" smooth="yes"/>
      <point x="561" y="389"/>
      <point x="479" y="465"/>
      <point x="363" y="465" type="curve" smooth="yes"/>
      <point x="309" y="465"/>
      <point x="266" y="448"/>
      <point x="226" y="412" type="curve"/>
      <point x="218" y="412" type="line"/>
      <point x="277" y="615" type="line"/>
      <point x="578" y="615" type="line"/>
      <point x="593" y="701" type="line"/>
      <point x="214" y="701" type="line"/>
      <point x="96" y="299" type="line"/>
      <point x="183" y="299" type="line"/>
      <point x="222" y="357"/>
      <point x="266" y="384"/>
      <point x="332" y="384" type="curve" smooth="yes"/>
      <point x="408" y="384"/>
      <point x="459" y="327"/>
      <point x="459" y="246" type="curve" smooth="yes"/>
      <point x="459" y="163"/>
      <point x="402" y="73"/>
      <point x="292" y="73" type="curve" smooth="yes"/>
      <point x="199" y="73"/>
      <point x="150" y="133"/>
      <point x="166" y="224" type="curve"/>
      <point x="210" y="195" type="line"/>
      <point x="23" y="195" type="line"/>
      <point x="72" y="224" type="line"/>
      <point x="45" y="75"/>
      <point x="145" y="-10"/>
    </contour>
  </outline>
</glyph>
<glyph name="six" format="2">
  <advance width="630"/>
  <unicode hex="0036"/>
  <outline>
    <contour>
      <point x="210" y="367" type="curve"/>
      <point x="202" y="368" type="line"/>
      <point x="229" y="528"/>
      <point x="294" y="630"/>
      <point x="409" y="630" type="curve" smooth="yes"/>
      <point x="495" y="630"/>
      <point x="524" y="576"/>
      <point x="516" y="491" type="curve"/>
      <point x="472" y="512" type="line"/>
      <point x="658" y="506" type="line"/>
      <point x="612" y="488" type="line"/>
      <point x="633" y="612"/>
      <point x="568" y="710"/>
      <point x="419" y="710" type="curve" smooth="yes"/>
      <point x="179" y="710"/>
      <point x="82" y="410"/>
      <point x="82" y="220" type="curve" smooth="yes"/>
      <point x="82" y="59"/>
      <point x="171" y="-9"/>
      <point x="302" y="-9" type="curve" smooth="yes"/>
      <point x="469" y="-9"/>
      <point x="572" y="117"/>
      <point x="572" y="269" type="curve" smooth="yes"/>
      <point x="572" y="382"/>
      <point x="496" y="443"/>
      <point x="382" y="443" type="curve" smooth="yes"/>
      <point x="318" y="443"/>
      <point x="252" y="421"/>
    </contour>
    <contour>
      <point x="309" y="74" type="curve" smooth="yes"/>
      <point x="231" y="74"/>
      <point x="183" y="122"/>
      <point x="183" y="193" type="curve" smooth="yes"/>
      <point x="183" y="276"/>
      <point x="244" y="363"/>
      <point x="348" y="363" type="curve" smooth="yes"/>
      <point x="427" y="363"/>
      <point x="472" y="317"/>
      <point x="472" y="246" type="curve" smooth="yes"/>
      <point x="472" y="159"/>
      <point x="412" y="74"/>
    </contour>
  </outline>
</glyph>
<glyph name="seven" format="2">
  <advance width="630"/>
  <unicode hex="0037"/>
  <outline>
    <contour>
      <point x="502" y="614" type="line"/>
      <point x="500" y="606" type="line"/>
      <point x="361" y="492"/>
      <point x="243" y="310"/>
      <point x="195" y="36" type="curve" smooth="yes"/>
      <point x="188" y="0" type="line"/>
      <point x="284" y="0" type="line"/>
      <point x="290" y="30" type="line" smooth="yes"/>
      <point x="339" y="311"/>
      <point x="409" y="444"/>
      <point x="614" y="614" type="curve"/>
      <point x="629" y="700" type="line"/>
      <point x="158" y="700" type="line"/>
      <point x="143" y="614" type="line"/>
    </contour>
  </outline>
</glyph>
<glyph name="eight" format="2">
  <advance width="630"/>
  <unicode hex="0038"/>
  <outline>
    <contour>
      <point x="286" y="-10" type="curve" smooth="yes"/>
      <point x="433" y="-10"/>
      <point x="561" y="72"/>
      <point x="561" y="217" type="curve" smooth="yes"/>
      <point x="561" y="275"/>
      <point x="532" y="323"/>
      <point x="464" y="357" type="curve"/>
      <point x="466" y="365" type="line"/>
      <point x="549" y="397"/>
      <point x="600" y="464"/>
      <point x="600" y="549" type="curve" smooth="yes"/>
      <point x="600" y="647"/>
      <point x="518" y="710"/>
      <point x="384" y="710" type="curve" smooth="yes"/>
      <point x="245" y="710"/>
      <point x="130" y="628"/>
      <point x="130" y="499" type="curve" smooth="yes"/>
      <point x="130" y="449"/>
      <point x="152" y="404"/>
      <point x="209" y="375" type="curve"/>
      <point x="207" y="367" type="line"/>
      <point x="106" y="330"/>
      <point x="51" y="253"/>
      <point x="51" y="159" type="curve" smooth="yes"/>
      <point x="51" y="52"/>
      <point x="144" y="-10"/>
    </contour>
    <contour>
      <point x="293" y="73" type="curve" smooth="yes"/>
      <point x="198" y="73"/>
      <point x="152" y="119"/>
      <point x="152" y="182" type="curve" smooth="yes"/>
      <point x="152" y="260"/>
      <point x="213" y="324"/>
      <point x="319" y="324" type="curve" smooth="yes"/>
      <point x="417" y="324"/>
      <point x="464" y="278"/>
      <point x="464" y="217" type="curve" smooth="yes"/>
      <point x="464" y="132"/>
      <point x="391" y="73"/>
    </contour>
    <contour>
      <point x="353" y="407" type="curve" smooth="yes"/>
      <point x="271" y="407"/>
      <point x="227" y="445"/>
      <point x="227" y="502" type="curve" smooth="yes"/>
      <point x="227" y="573"/>
      <point x="286" y="627"/>
      <point x="375" y="627" type="curve" smooth="yes"/>
      <point x="457" y="627"/>
      <point x="500" y="589"/>
      <point x="500" y="533" type="curve" smooth="yes"/>
      <point x="500" y="459"/>
      <point x="439" y="407"/>
    </contour>
  </outline>
</glyph>
<glyph name="nine" format="2">
  <advance width="630"/>
  <unicode hex="0039"/>
  <outline>
    <contour>
      <point x="498" y="334" type="curve"/>
      <point x="506" y="333" type="line"/>
      <point x="479" y="173"/>
      <point x="429" y="71"/>
      <point x="314" y="71" type="curve" smooth="yes"/>
      <point x="228" y="71"/>
      <point x="184" y="125"/>
      <point x="192" y="210" type="curve"/>
      <point x="236" y="189" type="line"/>
      <point x="50" y="195" type="line"/>
      <point x="96" y="213" type="line"/>
      <point x="75" y="89"/>
      <point x="165" y="-9"/>
      <point x="311" y="-9" type="curve" smooth="yes"/>
      <point x="535" y="-9"/>
      <point x="626" y="251"/>
      <point x="626" y="481" type="curve" smooth="yes"/>
      <point x="626" y="642"/>
      <point x="537" y="710"/>
      <point x="406" y="710" type="curve" smooth="yes"/>
      <point x="239" y="710"/>
      <point x="136" y="584"/>
      <point x="136" y="432" type="curve" smooth="yes"/>
      <point x="136" y="319"/>
      <point x="212" y="258"/>
      <point x="326" y="258" type="curve" smooth="yes"/>
      <point x="390" y="258"/>
      <point x="456" y="280"/>
    </contour>
    <contour>
      <point x="399" y="627" type="curve" smooth="yes"/>
      <point x="477" y="627"/>
      <point x="525" y="579"/>
      <point x="525" y="508" type="curve" smooth="yes"/>
      <point x="525" y="425"/>
      <point x="464" y="338"/>
      <point x="360" y="338" type="curve" smooth="yes"/>
      <point x="281" y="338"/>
      <point x="236" y="384"/>
      <point x="236" y="455" type="curve" smooth="yes"/>
      <point x="236" y="542"/>
      <point x="296" y="627"/>
    </contour>
  </outline>
</glyph>
<glyph name="equal" format="2">
  <advance width="630"/>
  <unicode hex="003D"/>
  <outline>
    <contour>
      <point x="136" y="380" type="line"/>
      <point x="541" y="380" type="line"/>
      <point x="554" y="454" type="line"/>
      <point x="149" y="454" type="line"/>
    </contour>
    <contour>
      <point x="101" y="180" type="line"/>
      <point x="506" y="180" type="line"/>
      <point x="519" y="254" type="line"/>
      <point x="114" y="254" type="line"/>
    </contour>
  </outline>
</glyph>
<glyph name="at" format="2">
  <advance width="630"/>
  <unicode hex="0040"/>
  <outline>
    <contour>
      <point x="259" y="-168" type="curve" smooth="yes"/>
      <point x="330" y="-168"/>
      <point x="391" y="-148"/>
      <point x="445" y="-109" type="curve"/>
      <point x="412" y="-48" type="line"/>
      <point x="381" y="-72"/>
      <point x="333" y="-93"/>
      <point x="277" y="-93" type="curve" smooth="yes"/>
      <point x="124" y="-93"/>
      <point x="76" y="43"/>
      <point x="116" y="271" type="curve" smooth="yes"/>
      <point x="158" y="511"/>
      <point x="250" y="635"/>
      <point x="391" y="635" type="curve" smooth="yes"/>
      <point x="532" y="635"/>
      <point x="566" y="497"/>
      <point x="529" y="288" type="curve" smooth="yes"/>
      <point x="509" y="177"/>
      <point x="492" y="111"/>
      <point x="461" y="111" type="curve" smooth="yes"/>
      <point x="436" y="111"/>
      <point x="436" y="135"/>
      <point x="443" y="176" type="curve" smooth="yes"/>
      <point x="498" y="489" type="line"/>
      <point x="429" y="489" type="line"/>
      <point x="424" y="456" type="line"/>
      <point x="416" y="456" type="line"/>
      <point x="409" y="480"/>
      <point x="384" y="497"/>
      <point x="345" y="497" type="curve" smooth="yes"/>
      <point x="270" y="497"/>
      <point x="204" y="433"/>
      <point x="173" y="260" type="curve" smooth="yes"/>
      <point x="143" y="87"/>
      <point x="187" y="29"/>
      <point x="262" y="29" type="curve" smooth="yes"/>
      <point x="306" y="29"/>
      <point x="344" y="56"/>
      <point x="362" y="92" type="curve"/>
      <point x="371" y="92" type="line"/>
      <point x="374" y="57"/>
      <point x="394" y="31"/>
      <point x="444" y="31" type="curve" smooth="yes"/>
      <point x="532" y="31"/>
      <point x="583" y="112"/>
      <point x="615" y="291" type="curve" smooth="yes"/>
      <point x="659" y="544"/>
      <point x="592" y="710"/>
      <point x="404" y="710" type="curve" smooth="yes"/>
      <point x="216" y="710"/>
      <point x="82" y="558"/>
      <point x="31" y="271" type="curve" smooth="yes"/>
      <point x="-17" y="-4"/>
      <point x="63" y="-168"/>
    </contour>
    <contour>
      <point x="290" y="99" type="curve" smooth="yes"/>
      <point x="244" y="99"/>
      <point x="231" y="139"/>
      <point x="252" y="260" type="curve" smooth="yes"/>
      <point x="274" y="387"/>
      <point x="302" y="427"/>
      <point x="348" y="427" type="curve" smooth="yes"/>
      <point x="388" y="427"/>
      <point x="405" y="387"/>
      <point x="383" y="260" type="curve" smooth="yes"/>
      <point x="362" y="139"/>
      <point x="330" y="99"/>
    </contour>
  </outline>
</glyph>
<glyph name="A" format="2">
  <advance width="630"/>
  <unicode hex="0041"/>
  <anchor x="271" y="0" name="bottom"/>
  <anchor x="541" y="0" name="ogonek"/>
  <anchor x="395" y="700" name="top"/>
  <outline>
    <contour>
      <point x="385" y="595" type="line"/>
      <point x="447" y="0" type="line"/>
      <point x="541" y="0" type="line"/>
      <point x="460" y="700" type="line"/>
      <point x="330" y="700" type="line"/>
      <point x="1" y="0" type="line"/>
      <point x="105" y="0" type="line"/>
      <point x="377" y="595" type="line"/>
    </contour>
    <contour>
      <point x="192" y="291" type="line"/>
      <point x="156" y="205" type="line"/>
      <point x="457" y="205" type="line"/>
      <point x="453" y="291" type="line"/>
    </contour>
  </outline>
</glyph>
<glyph name="B" format="2">
  <advance width="630"/>
  <unicode hex="0042"/>
  <anchor x="276" y="0" name="bottom"/>
  <anchor x="150" y="175" name="center"/>
  <anchor x="400" y="700" name="top"/>
  <outline>
    <contour>
      <point x="71" y="0" type="line"/>
      <point x="320" y="0" type="line" smooth="yes"/>
      <point x="489" y="0"/>
      <point x="576" y="87"/>
      <point x="576" y="221" type="curve" smooth="yes"/>
      <point x="576" y="294"/>
      <point x="546" y="343"/>
      <point x="492" y="363" type="curve"/>
      <point x="494" y="371" type="line"/>
      <point x="580" y="406"/>
      <point x="612" y="475"/>
      <point x="612" y="540" type="curve" smooth="yes"/>
      <point x="612" y="615"/>
      <point x="565" y="700"/>
      <point x="405" y="700" type="curve" smooth="yes"/>
      <point x="195" y="700" type="line"/>
    </contour>
    <contour>
      <point x="182" y="86" type="line"/>
      <point x="224" y="320" type="line"/>
      <point x="359" y="320" type="line" smooth="yes"/>
      <point x="441" y="320"/>
      <point x="480" y="284"/>
      <point x="480" y="217" type="curve" smooth="yes"/>
      <point x="480" y="144"/>
      <point x="424" y="86"/>
      <point x="317" y="86" type="curve" smooth="yes"/>
    </contour>
    <contour>
      <point x="239" y="406" type="line"/>
      <point x="276" y="614" type="line"/>
      <point x="396" y="614" type="line" smooth="yes"/>
      <point x="481" y="614"/>
      <point x="513" y="576"/>
      <point x="513" y="523" type="curve" smooth="yes"/>
      <point x="513" y="444"/>
      <point x="462" y="406"/>
      <point x="369" y="406" type="curve" smooth="yes"/>
    </contour>
  </outline>
</glyph>
<glyph name="C" format="2">
  <advance width="630"/>
  <unicode hex="0043"/>
  <anchor x="276" y="0" name="bottom"/>
  <anchor x="400" y="700" name="top"/>
  <outline>
    <contour>
      <point x="622" y="260" type="line"/>
      <point x="436" y="260" type="line"/>
      <point x="486" y="283" type="line"/>
      <point x="465" y="164"/>
      <point x="395" y="76"/>
      <point x="299" y="76" type="curve" smooth="yes"/>
      <point x="224" y="76"/>
      <point x="171" y="124"/>
      <point x="171" y="246" type="curve" smooth="yes"/>
      <point x="171" y="374"/>
      <point x="222" y="624"/>
      <point x="394" y="624" type="curve" smooth="yes"/>
      <point x="494" y="624"/>
      <point x="527" y="532"/>
      <point x="505" y="408" type="curve"/>
      <point x="464" y="435" type="line"/>
      <point x="650" y="435" type="line"/>
      <point x="601" y="409" type="line"/>
      <point x="636" y="603"/>
      <point x="550" y="710"/>
      <point x="400" y="710" type="curve" smooth="yes"/>
      <point x="168" y="710"/>
      <point x="72" y="456"/>
      <point x="72" y="236" type="curve" smooth="yes"/>
      <point x="72" y="73"/>
      <point x="161" y="-10"/>
      <point x="294" y="-10" type="curve" smooth="yes"/>
      <point x="438" y="-10"/>
      <point x="550" y="98"/>
      <point x="584" y="292" type="curve"/>
    </contour>
  </outline>
</glyph>
<glyph name="D" format="2">
  <advance width="630"/>
  <unicode hex="0044"/>
  <anchor x="272" y="0" name="bottom"/>
  <anchor x="178" y="350" name="center"/>
  <anchor x="396" y="700" name="top"/>
  <outline>
    <contour>
      <point x="39" y="0" type="line"/>
      <point x="216" y="0" type="line" smooth="yes"/>
      <point x="433" y="0"/>
      <point x="536" y="105"/>
      <point x="579" y="349" type="curve" smooth="yes"/>
      <point x="622" y="592"/>
      <point x="557" y="700"/>
      <point x="338" y="700" type="curve" smooth="yes"/>
      <point x="163" y="700" type="line"/>
    </contour>
    <contour>
      <point x="150" y="86" type="line"/>
      <point x="244" y="614" type="line"/>
      <point x="322" y="614" type="line" smooth="yes"/>
      <point x="479" y="614"/>
      <point x="518" y="550"/>
      <point x="483" y="350" type="curve" smooth="yes"/>
      <point x="448" y="150"/>
      <point x="385" y="86"/>
      <point x="228" y="86" type="curve" smooth="yes"/>
    </contour>
  </outline>
</glyph>
<glyph name="E" format="2">
  <advance width="630"/>
  <unicode hex="0045"/>
  <anchor x="271" y="0" name="bottom"/>
  <anchor x="499" y="0" name="ogonek"/>
  <anchor x="394" y="700" name="top"/>
  <anchor x="99" y="700" name="topleft"/>
  <outline>
    <contour>
      <point x="60" y="0" type="line"/>
      <point x="499" y="0" type="line"/>
      <point x="514" y="86" type="line"/>
      <point x="171" y="86" type="line"/>
      <point x="212" y="317" type="line"/>
      <point x="441" y="317" type="line"/>
      <point x="456" y="403" type="line"/>
      <point x="227" y="403" type="line"/>
      <point x="265" y="614" type="line"/>
      <point x="598" y="614" type="line"/>
      <point x="613" y="700" type="line"/>
      <point x="184" y="700" type="line"/>
    </contour>
  </outline>
</glyph>
<glyph name="F" format="2">
  <advance width="630"/>
  <unicode hex="0046"/>
  <anchor x="272" y="0" name="bottom"/>
  <anchor x="396" y="700" name="top"/>
  <outline>
    <contour>
      <point x="81" y="0" type="line"/>
      <point x="177" y="0" type="line"/>
      <point x="233" y="317" type="line"/>
      <point x="462" y="317" type="line"/>
      <point x="477" y="403" type="line"/>
      <point x="248" y="403" type="line"/>
      <point x="286" y="614" type="line"/>
      <point x="619" y="614" type="line"/>
      <point x="634" y="700" type="line"/>
      <point x="205" y="700" type="line"/>
    </contour>
  </outline>
</glyph>
<glyph name="G" format="2">
  <advance width="630"/>
  <unicode hex="0047"/>
  <anchor x="277" y="0" name="bottom"/>
  <anchor x="401" y="700" name="top"/>
  <outline>
    <contour>
      <point x="290" y="-10" type="curve" smooth="yes"/>
      <point x="443" y="-10"/>
      <point x="557" y="101"/>
      <point x="599" y="350" type="curve" smooth="yes"/>
      <point x="603" y="374" type="line"/>
      <point x="318" y="374" type="line"/>
      <point x="303" y="288" type="line"/>
      <point x="546" y="288" type="line"/>
      <point x="506" y="363" type="line"/>
      <point x="504" y="350" type="line" smooth="yes"/>
      <point x="473" y="172"/>
      <point x="413" y="76"/>
      <point x="295" y="76" type="curve" smooth="yes"/>
      <point x="202" y="76"/>
      <point x="165" y="144"/>
      <point x="165" y="246" type="curve" smooth="yes"/>
      <point x="165" y="374"/>
      <point x="206" y="624"/>
      <point x="393" y="624" type="curve" smooth="yes"/>
      <point x="484" y="624"/>
      <point x="514" y="548"/>
      <point x="506" y="456" type="curve"/>
      <point x="461" y="483" type="line"/>
      <point x="651" y="483" type="line"/>
      <point x="603" y="460" type="line"/>
      <point x="625" y="612"/>
      <point x="539" y="710"/>
      <point x="398" y="710" type="curve" smooth="yes"/>
      <point x="157" y="710"/>
      <point x="67" y="455"/>
      <point x="67" y="235" type="curve" smooth="yes"/>
      <point x="67" y="70"/>
      <point x="155" y="-10"/>
    </contour>
  </outline>
</glyph>
<glyph name="H" format="2">
  <advance width="630"/>
  <unicode hex="0048"/>
  <anchor x="272" y="0" name="bottom"/>
  <anchor x="365" y="525" name="center"/>
  <anchor x="396" y="700" name="top"/>
  <anchor x="101" y="700" name="topleft"/>
  <outline>
    <contour>
      <point x="39" y="0" type="line"/>
      <point x="135" y="0" type="line"/>
      <point x="191" y="316" type="line"/>
      <point x="465" y="316" type="line"/>
      <point x="409" y="0" type="line"/>
      <point x="505" y="0" type="line"/>
      <point x="629" y="700" type="line"/>
      <point x="533" y="700" type="line"/>
      <point x="480" y="402" type="line"/>
      <point x="206" y="402" type="line"/>
      <point x="259" y="700" type="line"/>
      <point x="163" y="700" type="line"/>
    </contour>
  </outline>
</glyph>
<glyph name="I" format="2">
  <advance width="630"/>
  <unicode hex="0049"/>
  <anchor x="272" y="0" name="bottom"/>
  <anchor x="481" y="0" name="ogonek"/>
  <anchor x="396" y="700" name="top"/>
  <anchor x="101" y="700" name="topleft"/>
  <outline>
    <contour>
      <point x="63" y="0" type="line"/>
      <point x="481" y="0" type="line"/>
      <point x="496" y="86" type="line"/>
      <point x="335" y="86" type="line"/>
      <point x="429" y="614" type="line"/>
      <point x="590" y="614" type="line"/>
      <point x="605" y="700" type="line"/>
      <point x="187" y="700" type="line"/>
      <point x="172" y="614" type="line"/>
      <point x="333" y="614" type="line"/>
      <point x="239" y="86" type="line"/>
      <point x="78" y="86" type="line"/>
    </contour>
  </outline>
</glyph>
<glyph name="J" format="2">
  <advance width="630"/>
  <unicode hex="004A"/>
  <anchor x="272" y="0" name="bottom"/>
  <anchor x="407" y="700" name="top"/>
  <outline>
    <contour>
      <point x="596" y="700" type="line"/>
      <point x="223" y="700" type="line"/>
      <point x="207" y="614" type="line"/>
      <point x="484" y="614" type="line"/>
      <point x="416" y="228" type="line" smooth="yes"/>
      <point x="398" y="126"/>
      <point x="354" y="77"/>
      <point x="278" y="77" type="curve" smooth="yes"/>
      <point x="202" y="77"/>
      <point x="170" y="126"/>
      <point x="188" y="228" type="curve"/>
      <point x="233" y="219" type="line"/>
      <point x="46" y="219" type="line"/>
      <point x="91" y="226" type="line"/>
      <point x="64" y="72"/>
      <point x="136" y="-10"/>
      <point x="272" y="-10" type="curve" smooth="yes"/>
      <point x="417" y="-10"/>
      <point x="485" y="72"/>
      <point x="511" y="223" type="curve" smooth="yes"/>
    </contour>
  </outline>
</glyph>
<glyph name="K" format="2">
  <advance width="630"/>
  <unicode hex="004B"/>
  <anchor x="271" y="0" name="bottom"/>
  <anchor x="395" y="700" name="top"/>
  <outline>
    <contour>
      <point x="126" y="177" type="line"/>
      <point x="163" y="177" type="line"/>
      <point x="623" y="700" type="line"/>
      <point x="519" y="700" type="line"/>
      <point x="223" y="358" type="line"/>
      <point x="215" y="358" type="line"/>
      <point x="158" y="358" type="line"/>
    </contour>
    <contour>
      <point x="56" y="0" type="line"/>
      <point x="152" y="0" type="line"/>
      <point x="276" y="700" type="line"/>
      <point x="180" y="700" type="line"/>
    </contour>
    <contour>
      <point x="415" y="0" type="line"/>
      <point x="520" y="0" type="line"/>
      <point x="374" y="436" type="line"/>
      <point x="290" y="369" type="line"/>
      <point x="283" y="330" type="line"/>
      <point x="305" y="330" type="line"/>
    </contour>
  </outline>
</glyph>
<glyph name="L" format="2">
  <advance width="630"/>
  <unicode hex="004C"/>
  <anchor x="281" y="0" name="bottom"/>
  <anchor x="168" y="350" name="center"/>
  <anchor x="222" y="700" name="top"/>
  <anchor x="485" y="700" name="topright"/>
  <outline>
    <contour>
      <point x="50" y="0" type="line"/>
      <point x="515" y="0" type="line"/>
      <point x="530" y="86" type="line"/>
      <point x="161" y="86" type="line"/>
      <point x="270" y="700" type="line"/>
      <point x="174" y="700" type="line"/>
    </contour>
  </outline>
</glyph>
<glyph name="M" format="2">
  <advance width="630"/>
  <unicode hex="004D"/>
  <anchor x="271" y="0" name="bottom"/>
  <anchor x="395" y="700" name="top"/>
  <outline>
    <contour>
      <point x="114" y="0" type="line"/>
      <point x="218" y="591" type="line"/>
      <point x="225" y="591" type="line"/>
      <point x="265" y="246" type="line"/>
      <point x="365" y="246" type="line"/>
      <point x="524" y="591" type="line"/>
      <point x="531" y="591" type="line"/>
      <point x="427" y="0" type="line"/>
      <point x="517" y="0" type="line"/>
      <point x="641" y="700" type="line"/>
      <point x="498" y="700" type="line"/>
      <point x="335" y="336" type="line"/>
      <point x="327" y="336" type="line"/>
      <point x="291" y="700" type="line"/>
      <point x="148" y="700" type="line"/>
      <point x="24" y="0" type="line"/>
    </contour>
  </outline>
</glyph>
<glyph name="N" format="2">
  <advance width="630"/>
  <unicode hex="004E"/>
  <anchor x="272" y="0" name="bottom"/>
  <anchor x="396" y="700" name="top"/>
  <outline>
    <contour>
      <point x="135" y="0" type="line"/>
      <point x="232" y="547" type="line"/>
      <point x="240" y="547" type="line"/>
      <point x="372" y="0" type="line"/>
      <point x="505" y="0" type="line"/>
      <point x="629" y="700" type="line"/>
      <point x="533" y="700" type="line"/>
      <point x="436" y="152" type="line"/>
      <point x="428" y="152" type="line"/>
      <point x="296" y="700" type="line"/>
      <point x="163" y="700" type="line"/>
      <point x="39" y="0" type="line"/>
    </contour>
  </outline>
</glyph>
<glyph name="O" format="2">
  <advance width="630"/>
  <unicode hex="004F"/>
  <anchor x="271" y="0" name="bottom"/>
  <anchor x="333" y="350" name="center"/>
  <anchor x="525" y="10" name="ogonek"/>
  <anchor x="394" y="700" name="top"/>
  <anchor x="99" y="700" name="topleft"/>
  <anchor x="689" y="700" name="topright"/>
  <outline>
    <contour>
      <point x="292" y="-10" type="curve" smooth="yes"/>
      <point x="510" y="-10"/>
      <point x="617" y="232"/>
      <point x="617" y="452" type="curve" smooth="yes"/>
      <point x="617" y="627"/>
      <point x="527" y="710"/>
      <point x="394" y="710" type="curve" smooth="yes"/>
      <point x="176" y="710"/>
      <point x="69" y="468"/>
      <point x="69" y="248" type="curve" smooth="yes"/>
      <point x="69" y="73"/>
      <point x="150" y="-10"/>
    </contour>
    <contour>
      <point x="295" y="76" type="curve" smooth="yes"/>
      <point x="206" y="76"/>
      <point x="167" y="137"/>
      <point x="167" y="242" type="curve" smooth="yes"/>
      <point x="167" y="392"/>
      <point x="234" y="624"/>
      <point x="391" y="624" type="curve" smooth="yes"/>
      <point x="480" y="624"/>
      <point x="519" y="563"/>
      <point x="519" y="458" type="curve" smooth="yes"/>
      <point x="519" y="338"/>
      <point x="472" y="76"/>
    </contour>
  </outline>
</glyph>
<glyph name="P" format="2">
  <advance width="630"/>
  <unicode hex="0050"/>
  <anchor x="277" y="0" name="bottom"/>
  <anchor x="401" y="700" name="top"/>
  <outline>
    <contour>
      <point x="81" y="0" type="line"/>
      <point x="177" y="0" type="line"/>
      <point x="226" y="278" type="line"/>
      <point x="379" y="278" type="line" smooth="yes"/>
      <point x="530" y="278"/>
      <point x="631" y="360"/>
      <point x="631" y="510" type="curve" smooth="yes"/>
      <point x="631" y="623"/>
      <point x="561" y="700"/>
      <point x="394" y="700" type="curve" smooth="yes"/>
      <point x="205" y="700" type="line"/>
    </contour>
    <contour>
      <point x="241" y="364" type="line"/>
      <point x="286" y="614" type="line"/>
      <point x="392" y="614" type="line" smooth="yes"/>
      <point x="490" y="614"/>
      <point x="533" y="571"/>
      <point x="533" y="505" type="curve" smooth="yes"/>
      <point x="533" y="415"/>
      <point x="481" y="364"/>
      <point x="366" y="364" type="curve" smooth="yes"/>
    </contour>
  </outline>
</glyph>
<glyph name="R" format="2">
  <advance width="630"/>
  <unicode hex="0052"/>
  <anchor x="271" y="0" name="bottom"/>
  <anchor x="395" y="700" name="top"/>
  <outline>
    <contour>
      <point x="54" y="0" type="line"/>
      <point x="150" y="0" type="line"/>
      <point x="203" y="299" type="line"/>
      <point x="310" y="300" type="line" smooth="yes"/>
      <point x="399" y="301"/>
      <point x="423" y="274"/>
      <point x="423" y="181" type="curve" smooth="yes"/>
      <point x="424" y="74" type="line" smooth="yes"/>
      <point x="424" y="46"/>
      <point x="427" y="18"/>
      <point x="435" y="0" type="curve"/>
      <point x="533" y="0" type="line"/>
      <point x="525" y="19"/>
      <point x="521" y="46"/>
      <point x="521" y="76" type="curve" smooth="yes"/>
      <point x="517" y="202" type="line" smooth="yes"/>
      <point x="515" y="276"/>
      <point x="501" y="319"/>
      <point x="445" y="334" type="curve"/>
      <point x="447" y="342" type="line"/>
      <point x="553" y="364"/>
      <point x="605" y="432"/>
      <point x="605" y="524" type="curve" smooth="yes"/>
      <point x="605" y="627"/>
      <point x="543" y="700"/>
      <point x="385" y="700" type="curve" smooth="yes"/>
      <point x="178" y="700" type="line"/>
    </contour>
    <contour>
      <point x="217" y="380" type="line"/>
      <point x="259" y="614" type="line"/>
      <point x="361" y="614" type="line" smooth="yes"/>
      <point x="468" y="614"/>
      <point x="505" y="574"/>
      <point x="505" y="506" type="curve" smooth="yes"/>
      <point x="505" y="425"/>
      <point x="447" y="380"/>
      <point x="348" y="380" type="curve" smooth="yes"/>
    </contour>
  </outline>
</glyph>
<glyph name="S" format="2">
  <advance width="630"/>
  <unicode hex="0053"/>
  <anchor x="313" y="0" name="bottom"/>
  <anchor x="386" y="700" name="top"/>
  <outline>
    <contour>
      <point x="319" y="-10" type="curve" smooth="yes"/>
      <point x="467" y="-10"/>
      <point x="562" y="77"/>
      <point x="562" y="200" type="curve" smooth="yes"/>
      <point x="562" y="298"/>
      <point x="512" y="346"/>
      <point x="430" y="381" type="curve" smooth="yes"/>
      <point x="341" y="419" type="line" smooth="yes"/>
      <point x="279" y="445"/>
      <point x="253" y="474"/>
      <point x="253" y="524" type="curve" smooth="yes"/>
      <point x="253" y="588"/>
      <point x="303" y="629"/>
      <point x="381" y="629" type="curve" smooth="yes"/>
      <point x="463" y="629"/>
      <point x="515" y="578"/>
      <point x="506" y="479" type="curve"/>
      <point x="467" y="496" type="line"/>
      <point x="650" y="496" type="line"/>
      <point x="604" y="483" type="line"/>
      <point x="619" y="606"/>
      <point x="538" y="710"/>
      <point x="386" y="710" type="curve" smooth="yes"/>
      <point x="235" y="710"/>
      <point x="152" y="627"/>
      <point x="152" y="510" type="curve" smooth="yes"/>
      <point x="152" y="408"/>
      <point x="208" y="365"/>
      <point x="293" y="330" type="curve" smooth="yes"/>
      <point x="363" y="301" type="line" smooth="yes"/>
      <point x="443" y="268"/>
      <point x="460" y="235"/>
      <point x="460" y="193" type="curve" smooth="yes"/>
      <point x="460" y="114"/>
      <point x="403" y="71"/>
      <point x="325" y="71" type="curve" smooth="yes"/>
      <point x="222" y="71"/>
      <point x="176" y="133"/>
      <point x="184" y="232" type="curve"/>
      <point x="216" y="211" type="line"/>
      <point x="38" y="211" type="line"/>
      <point x="85" y="225" type="line"/>
      <point x="76" y="88"/>
      <point x="149" y="-10"/>
    </contour>
  </outline>
</glyph>
<glyph name="T" format="2">
  <advance width="630"/>
  <unicode hex="0054"/>
  <anchor x="270" y="0" name="bottom"/>
  <anchor x="332" y="350" name="center"/>
  <anchor x="394" y="700" name="top"/>
  <outline>
    <contour>
      <point x="222" y="0" type="line"/>
      <point x="318" y="0" type="line"/>
      <point x="427" y="614" type="line"/>
      <point x="648" y="614" type="line"/>
      <point x="663" y="700" type="line"/>
      <point x="125" y="700" type="line"/>
      <point x="110" y="614" type="line"/>
      <point x="331" y="614" type="line"/>
    </contour>
  </outline>
</glyph>
<glyph name="U" format="2">
  <advance width="630"/>
  <unicode hex="0055"/>
  <anchor x="272" y="0" name="bottom"/>
  <anchor x="357" y="0" name="ogonek"/>
  <anchor x="396" y="700" name="top"/>
  <anchor x="691" y="700" name="topright"/>
  <outline>
    <contour>
      <point x="288" y="-10" type="curve" smooth="yes"/>
      <point x="451" y="-10"/>
      <point x="519" y="77"/>
      <point x="545" y="228" type="curve" smooth="yes"/>
      <point x="629" y="700" type="line"/>
      <point x="533" y="700" type="line"/>
      <point x="451" y="236" type="line" smooth="yes"/>
      <point x="433" y="133"/>
      <point x="388" y="76"/>
      <point x="294" y="76" type="curve" smooth="yes"/>
      <point x="200" y="76"/>
      <point x="159" y="133"/>
      <point x="177" y="236" type="curve" smooth="yes"/>
      <point x="259" y="700" type="line"/>
      <point x="163" y="700" type="line"/>
      <point x="79" y="228" type="line" smooth="yes"/>
      <point x="53" y="77"/>
      <point x="125" y="-10"/>
    </contour>
  </outline>
</glyph>
<glyph name="V" format="2">
  <advance width="630"/>
  <unicode hex="0056"/>
  <anchor x="270" y="0" name="bottom"/>
  <anchor x="394" y="700" name="top"/>
  <outline>
    <contour>
      <point x="290" y="105" type="line"/>
      <point x="282" y="105" type="line"/>
      <point x="224" y="700" type="line"/>
      <point x="128" y="700" type="line"/>
      <point x="205" y="0" type="line"/>
      <point x="335" y="0" type="line"/>
      <point x="660" y="700" type="line"/>
      <point x="558" y="700" type="line"/>
    </contour>
  </outline>
</glyph>
<glyph name="W" format="2">
  <advance width="630"/>
  <unicode hex="0057"/>
  <anchor x="270" y="0" name="bottom"/>
  <anchor x="394" y="700" name="top"/>
  <outline>
    <contour>
      <point x="51" y="0" type="line"/>
      <point x="189" y="0" type="line"/>
      <point x="320" y="303" type="line"/>
      <point x="328" y="303" type="line"/>
      <point x="351" y="0" type="line"/>
      <point x="489" y="0" type="line"/>
      <point x="645" y="700" type="line"/>
      <point x="549" y="700" type="line"/>
      <point x="423" y="127" type="line"/>
      <point x="416" y="127" type="line"/>
      <point x="390" y="468" type="line"/>
      <point x="316" y="468" type="line"/>
      <point x="170" y="127" type="line"/>
      <point x="163" y="127" type="line"/>
      <point x="239" y="700" type="line"/>
      <point x="143" y="700" type="line"/>
    </contour>
  </outline>
</glyph>
<glyph name="X" format="2">
  <advance width="630"/>
  <unicode hex="0058"/>
  <anchor x="271" y="0" name="bottom"/>
  <anchor x="395" y="700" name="top"/>
  <outline>
    <contour>
      <point x="20" y="0" type="line"/>
      <point x="132" y="0" type="line"/>
      <point x="322" y="287" type="line"/>
      <point x="330" y="287" type="line"/>
      <point x="418" y="0" type="line"/>
      <point x="522" y="0" type="line"/>
      <point x="408" y="353" type="line"/>
      <point x="638" y="700" type="line"/>
      <point x="532" y="700" type="line"/>
      <point x="345" y="416" type="line"/>
      <point x="337" y="416" type="line"/>
      <point x="250" y="700" type="line"/>
      <point x="152" y="700" type="line"/>
      <point x="260" y="353" type="line"/>
    </contour>
  </outline>
</glyph>
<glyph name="Y" format="2">
  <advance width="630"/>
  <unicode hex="0059"/>
  <anchor x="270" y="0" name="bottom"/>
  <anchor x="394" y="700" name="top"/>
  <anchor x="99" y="700" name="topleft"/>
  <outline>
    <contour>
      <point x="144" y="700" type="line"/>
      <point x="270" y="268" type="line"/>
      <point x="222" y="0" type="line"/>
      <point x="318" y="0" type="line"/>
      <point x="366" y="268" type="line"/>
      <point x="644" y="700" type="line"/>
      <point x="540" y="700" type="line"/>
      <point x="337" y="381" type="line"/>
      <point x="329" y="381" type="line"/>
      <point x="240" y="700" type="line"/>
    </contour>
  </outline>
</glyph>
<glyph name="Z" format="2">
  <advance width="630"/>
  <unicode hex="005A"/>
  <anchor x="271" y="0" name="bottom"/>
  <anchor x="333" y="350" name="center"/>
  <anchor x="395" y="700" name="top"/>
  <outline>
    <contour>
      <point x="46" y="0" type="line"/>
      <point x="495" y="0" type="line"/>
      <point x="510" y="85" type="line"/>
      <point x="180" y="85" type="line"/>
      <point x="596" y="614" type="line"/>
      <point x="611" y="700" type="line"/>
      <point x="180" y="700" type="line"/>
      <point x="165" y="614" type="line"/>
      <point x="477" y="614" type="line"/>
      <point x="61" y="85" type="line"/>
    </contour>
  </outline>
</glyph>
<glyph name="bracketleft" format="2">
  <advance width="630"/>
  <unicode hex="005B"/>
  <outline>
    <contour>
      <point x="132" y="9" type="line" smooth="yes"/>
      <point x="118" y="-69"/>
      <point x="148" y="-105"/>
      <point x="226" y="-105" type="curve" smooth="yes"/>
      <point x="397" y="-105" type="line"/>
      <point x="411" y="-25" type="line"/>
      <point x="217" y="-25" type="line"/>
      <point x="347" y="715" type="line"/>
      <point x="541" y="715" type="line"/>
      <point x="555" y="795" type="line"/>
      <point x="384" y="795" type="line" smooth="yes"/>
      <point x="306" y="795"/>
      <point x="264" y="759"/>
      <point x="250" y="681" type="curve" smooth="yes"/>
    </contour>
  </outline>
</glyph>
<glyph name="backslash" format="2">
  <advance width="630"/>
  <unicode hex="005C"/>
  <outline>
    <contour>
      <point x="427" y="-200" type="line"/>
      <point x="295" y="700" type="line"/>
      <point x="203" y="700" type="line"/>
      <point x="335" y="-200" type="line"/>
    </contour>
  </outline>
</glyph>
<glyph name="underscore" format="2">
  <advance width="630"/>
  <unicode hex="005F"/>
  <outline>
    <contour>
      <point x="-57" y="-132" type="line"/>
      <point x="552" y="-132" type="line"/>
      <point x="566" y="-58" type="line"/>
      <point x="-43" y="-58" type="line"/>
    </contour>
  </outline>
</glyph>
<glyph name="a" format="2">
  <advance width="630"/>
  <unicode hex="0061"/>
  <anchor x="277" y="0" name="bottom"/>
  <anchor x="549" y="0" name="ogonek"/>
  <anchor x="365" y="500" name="top"/>
  <outline>
    <contour>
      <point x="450" y="0" type="curve" smooth="yes"/>
      <point x="549" y="0" type="line"/>
      <point x="562" y="79" type="line"/>
      <point x="479" y="79" type="line"/>
      <point x="524" y="330" type="line" smooth="yes"/>
      <point x="546" y="456"/>
      <point x="461" y="510"/>
      <point x="353" y="510" type="curve" smooth="yes"/>
      <point x="222" y="510"/>
      <point x="146" y="438"/>
      <point x="129" y="332" type="curve"/>
      <point x="116" y="346" type="line"/>
      <point x="241" y="346" type="line"/>
      <point x="227" y="329" type="line"/>
      <point x="236" y="391"/>
      <point x="267" y="434"/>
      <point x="343" y="434" type="curve" smooth="yes"/>
      <point x="405" y="434"/>
      <point x="441" y="398"/>
      <point x="429" y="327" type="curve" smooth="yes"/>
      <point x="400" y="162" type="line" smooth="yes"/>
      <point x="388" y="92"/>
      <point x="328" y="61"/>
      <point x="268" y="61" type="curve" smooth="yes"/>
      <point x="216" y="61"/>
      <point x="184" y="83"/>
      <point x="184" y="127" type="curve" smooth="yes"/>
      <point x="184" y="207"/>
      <point x="282" y="224"/>
      <point x="377" y="224" type="curve" smooth="yes"/>
      <point x="420" y="224" type="line"/>
      <point x="432" y="292" type="line"/>
      <point x="376" y="292" type="line" smooth="yes"/>
      <point x="221" y="292"/>
      <point x="85" y="253"/>
      <point x="85" y="118" type="curve" smooth="yes"/>
      <point x="85" y="31"/>
      <point x="149" y="-6"/>
      <point x="236" y="-6" type="curve" smooth="yes"/>
      <point x="302" y="-6"/>
      <point x="363" y="17"/>
      <point x="401" y="66" type="curve"/>
      <point x="409" y="66" type="line"/>
      <point x="407" y="48" type="line" smooth="yes"/>
      <point x="401" y="14"/>
      <point x="417" y="0"/>
    </contour>
  </outline>
</glyph>
<glyph name="b" format="2">
  <advance width="630"/>
  <unicode hex="0062"/>
  <anchor x="275" y="0" name="bottom"/>
  <anchor x="217" y="560" name="center"/>
  <anchor x="363" y="500" name="top"/>
  <outline>
    <contour>
      <point x="308" y="-10" type="curve" smooth="yes"/>
      <point x="493" y="-10"/>
      <point x="573" y="146"/>
      <point x="573" y="309" type="curve" smooth="yes"/>
      <point x="573" y="442"/>
      <point x="491" y="510"/>
      <point x="389" y="510" type="curve" smooth="yes"/>
      <point x="321" y="510"/>
      <point x="261" y="484"/>
      <point x="221" y="434" type="curve"/>
      <point x="215" y="434" type="line"/>
      <point x="262" y="700" type="line"/>
      <point x="168" y="700" type="line"/>
      <point x="44" y="0" type="line"/>
      <point x="132" y="0" type="line"/>
      <point x="144" y="69" type="line"/>
      <point x="152" y="69" type="line"/>
      <point x="173" y="27"/>
      <point x="233" y="-10"/>
    </contour>
    <contour>
      <point x="303" y="70" type="curve" smooth="yes"/>
      <point x="223" y="70"/>
      <point x="177" y="118"/>
      <point x="177" y="203" type="curve" smooth="yes"/>
      <point x="177" y="313"/>
      <point x="234" y="430"/>
      <point x="349" y="430" type="curve" smooth="yes"/>
      <point x="428" y="430"/>
      <point x="475" y="382"/>
      <point x="475" y="297" type="curve" smooth="yes"/>
      <point x="475" y="187"/>
      <point x="417" y="70"/>
    </contour>
  </outline>
</glyph>
<glyph name="c" format="2">
  <advance width="630"/>
  <unicode hex="0063"/>
  <anchor x="275" y="0" name="bottom"/>
  <anchor x="363" y="500" name="top"/>
  <outline>
    <contour>
      <point x="559" y="171" type="line"/>
      <point x="403" y="171" type="line"/>
      <point x="453" y="198" type="line"/>
      <point x="429" y="117"/>
      <point x="377" y="70"/>
      <point x="306" y="70" type="curve" smooth="yes"/>
      <point x="225" y="70"/>
      <point x="184" y="119"/>
      <point x="184" y="201" type="curve" smooth="yes"/>
      <point x="184" y="288"/>
      <point x="222" y="430"/>
      <point x="349" y="430" type="curve" smooth="yes"/>
      <point x="440" y="430"/>
      <point x="466" y="363"/>
      <point x="461" y="277" type="curve"/>
      <point x="420" y="315" type="line"/>
      <point x="588" y="315" type="line"/>
      <point x="554" y="282" type="line"/>
      <point x="577" y="395"/>
      <point x="509" y="510"/>
      <point x="357" y="510" type="curve" smooth="yes"/>
      <point x="177" y="510"/>
      <point x="85" y="363"/>
      <point x="85" y="198" type="curve" smooth="yes"/>
      <point x="85" y="67"/>
      <point x="166" y="-10"/>
      <point x="299" y="-10" type="curve" smooth="yes"/>
      <point x="426" y="-10"/>
      <point x="514" y="66"/>
      <point x="543" y="183" type="curve"/>
    </contour>
  </outline>
</glyph>
<glyph name="d" format="2">
  <advance width="630"/>
  <unicode hex="0064"/>
  <anchor x="280" y="0" name="bottom"/>
  <anchor x="542" y="590" name="center"/>
  <anchor x="368" y="500" name="top"/>
  <anchor x="699" y="700" name="topright"/>
  <outline>
    <contour>
      <point x="261" y="-10" type="curve" smooth="yes"/>
      <point x="337" y="-10"/>
      <point x="392" y="23"/>
      <point x="427" y="69" type="curve"/>
      <point x="435" y="69" type="line"/>
      <point x="423" y="0" type="line"/>
      <point x="511" y="0" type="line"/>
      <point x="635" y="700" type="line"/>
      <point x="541" y="700" type="line"/>
      <point x="494" y="434" type="line"/>
      <point x="488" y="434" type="line"/>
      <point x="465" y="475"/>
      <point x="406" y="510"/>
      <point x="336" y="510" type="curve" smooth="yes"/>
      <point x="174" y="510"/>
      <point x="71" y="379"/>
      <point x="71" y="201" type="curve" smooth="yes"/>
      <point x="71" y="71"/>
      <point x="143" y="-10"/>
    </contour>
    <contour>
      <point x="294" y="70" type="curve" smooth="yes"/>
      <point x="214" y="70"/>
      <point x="168" y="118"/>
      <point x="168" y="203" type="curve" smooth="yes"/>
      <point x="168" y="313"/>
      <point x="225" y="430"/>
      <point x="340" y="430" type="curve" smooth="yes"/>
      <point x="419" y="430"/>
      <point x="466" y="382"/>
      <point x="466" y="297" type="curve" smooth="yes"/>
      <point x="466" y="187"/>
      <point x="408" y="70"/>
    </contour>
  </outline>
</glyph>
<glyph name="e" format="2">
  <advance width="630"/>
  <unicode hex="0065"/>
  <anchor x="276" y="0" name="bottom"/>
  <anchor x="367" y="0" name="ogonek"/>
  <anchor x="364" y="500" name="top"/>
  <outline>
    <contour>
      <point x="295" y="-9" type="curve" smooth="yes"/>
      <point x="410" y="-9"/>
      <point x="502" y="52"/>
      <point x="538" y="165" type="curve"/>
      <point x="571" y="136" type="line"/>
      <point x="392" y="143" type="line"/>
      <point x="445" y="172" type="line"/>
      <point x="430" y="113"/>
      <point x="379" y="70"/>
      <point x="303" y="70" type="curve" smooth="yes"/>
      <point x="199" y="70"/>
      <point x="169" y="145"/>
      <point x="186" y="236" type="curve" smooth="yes"/>
      <point x="194" y="278" type="line" smooth="yes"/>
      <point x="210" y="371"/>
      <point x="263" y="434"/>
      <point x="350" y="434" type="curve" smooth="yes"/>
      <point x="425" y="434"/>
      <point x="465" y="385"/>
      <point x="465" y="310" type="curve" smooth="yes"/>
      <point x="465" y="294"/>
      <point x="462" y="273"/>
      <point x="454" y="259" type="curve"/>
      <point x="507" y="287" type="line"/>
      <point x="160" y="287" type="line"/>
      <point x="160" y="209" type="line"/>
      <point x="544" y="209" type="line"/>
      <point x="550" y="229"/>
      <point x="560" y="272"/>
      <point x="560" y="316" type="curve" smooth="yes"/>
      <point x="560" y="433"/>
      <point x="481" y="510"/>
      <point x="359" y="510" type="curve" smooth="yes"/>
      <point x="182" y="510"/>
      <point x="89" y="360"/>
      <point x="89" y="204" type="curve" smooth="yes"/>
      <point x="89" y="64"/>
      <point x="172" y="-9"/>
    </contour>
  </outline>
</glyph>
<glyph name="f" format="2">
  <advance width="630"/>
  <unicode hex="0066"/>
  <anchor x="272" y="0" name="bottom"/>
  <anchor x="396" y="700" name="top"/>
  <outline>
    <contour>
      <point x="57" y="0" type="line"/>
      <point x="498" y="0" type="line"/>
      <point x="512" y="80" type="line"/>
      <point x="322" y="80" type="line"/>
      <point x="382" y="420" type="line"/>
      <point x="592" y="420" type="line"/>
      <point x="606" y="500" type="line"/>
      <point x="397" y="500" type="line"/>
      <point x="418" y="620" type="line"/>
      <point x="640" y="620" type="line"/>
      <point x="654" y="700" type="line"/>
      <point x="434" y="700" type="line" smooth="yes"/>
      <point x="366" y="700"/>
      <point x="333" y="673"/>
      <point x="321" y="605" type="curve" smooth="yes"/>
      <point x="302" y="500" type="line"/>
      <point x="126" y="500" type="line"/>
      <point x="112" y="420" type="line"/>
      <point x="288" y="420" type="line"/>
      <point x="228" y="80" type="line"/>
      <point x="71" y="80" type="line"/>
    </contour>
  </outline>
</glyph>
<glyph name="g" format="2">
  <advance width="630"/>
  <unicode hex="0067"/>
  <anchor x="236" y="-200" name="bottom"/>
  <anchor x="359" y="500" name="top"/>
  <outline>
    <contour>
      <point x="138" y="-200" type="curve" smooth="yes"/>
      <point x="300" y="-200" type="line" smooth="yes"/>
      <point x="425" y="-200"/>
      <point x="500" y="-145"/>
      <point x="500" y="-46" type="curve" smooth="yes"/>
      <point x="500" y="34"/>
      <point x="450" y="80"/>
      <point x="349" y="80" type="curve" smooth="yes"/>
      <point x="203" y="80" type="line" smooth="yes"/>
      <point x="165" y="80"/>
      <point x="149" y="96"/>
      <point x="149" y="118" type="curve" smooth="yes"/>
      <point x="149" y="150"/>
      <point x="176" y="166"/>
      <point x="218" y="166" type="curve" smooth="yes"/>
      <point x="302" y="166" type="line"/>
      <point x="174" y="235" type="line"/>
      <point x="168" y="200" type="line"/>
      <point x="98" y="183"/>
      <point x="57" y="145"/>
      <point x="57" y="88" type="curve" smooth="yes"/>
      <point x="57" y="29"/>
      <point x="99" y="-6"/>
      <point x="181" y="-6" type="curve" smooth="yes"/>
      <point x="332" y="-6" type="line" smooth="yes"/>
      <point x="380" y="-6"/>
      <point x="403" y="-23"/>
      <point x="403" y="-56" type="curve" smooth="yes"/>
      <point x="403" y="-96"/>
      <point x="370" y="-121"/>
      <point x="312" y="-121" type="curve" smooth="yes"/>
      <point x="165" y="-121" type="line" smooth="yes"/>
      <point x="118" y="-121"/>
      <point x="94" y="-104"/>
      <point x="94" y="-70" type="curve" smooth="yes"/>
      <point x="94" y="-30"/>
      <point x="129" y="-6"/>
      <point x="185" y="-6" type="curve"/>
      <point x="98" y="42" type="line"/>
      <point x="92" y="7" type="line"/>
      <point x="35" y="-10"/>
      <point x="-1" y="-48"/>
      <point x="-1" y="-101" type="curve" smooth="yes"/>
      <point x="-1" y="-163"/>
      <point x="45" y="-200"/>
    </contour>
    <contour>
      <point x="302" y="166" type="curve" smooth="yes"/>
      <point x="418" y="166"/>
      <point x="521" y="227"/>
      <point x="536" y="353" type="curve" smooth="yes"/>
      <point x="543" y="410" type="line"/>
      <point x="622" y="410" type="line"/>
      <point x="638" y="500" type="line"/>
      <point x="590" y="500" type="line" smooth="yes"/>
      <point x="544" y="500"/>
      <point x="522" y="473"/>
      <point x="517" y="442" type="curve"/>
      <point x="509" y="442" type="line"/>
      <point x="485" y="484"/>
      <point x="427" y="510"/>
      <point x="359" y="510" type="curve" smooth="yes"/>
      <point x="225" y="510"/>
      <point x="129" y="427"/>
      <point x="129" y="305" type="curve" smooth="yes"/>
      <point x="129" y="217"/>
      <point x="198" y="166"/>
    </contour>
    <contour>
      <point x="315" y="236" type="curve" smooth="yes"/>
      <point x="257" y="236"/>
      <point x="220" y="265"/>
      <point x="220" y="316" type="curve" smooth="yes"/>
      <point x="220" y="380"/>
      <point x="266" y="439"/>
      <point x="350" y="439" type="curve" smooth="yes"/>
      <point x="409" y="439"/>
      <point x="446" y="410"/>
      <point x="446" y="359" type="curve" smooth="yes"/>
      <point x="446" y="299"/>
      <point x="401" y="236"/>
    </contour>
  </outline>
</glyph>
<glyph name="h" format="2">
  <advance width="630"/>
  <unicode hex="0068"/>
  <anchor x="272" y="0" name="bottom"/>
  <anchor x="218" y="585" name="center"/>
  <anchor x="396" y="700" name="top"/>
  <outline>
    <contour>
      <point x="62" y="0" type="line"/>
      <point x="156" y="0" type="line"/>
      <point x="204" y="270" type="line" smooth="yes"/>
      <point x="224" y="382"/>
      <point x="285" y="430"/>
      <point x="358" y="430" type="curve" smooth="yes"/>
      <point x="428" y="430"/>
      <point x="465" y="394"/>
      <point x="445" y="284" type="curve" smooth="yes"/>
      <point x="395" y="0" type="line"/>
      <point x="489" y="0" type="line"/>
      <point x="542" y="298" type="line" smooth="yes"/>
      <point x="567" y="441"/>
      <point x="515" y="510"/>
      <point x="406" y="510" type="curve" smooth="yes"/>
      <point x="331" y="510"/>
      <point x="277" y="480"/>
      <point x="241" y="433" type="curve"/>
      <point x="233" y="433" type="line"/>
      <point x="280" y="700" type="line"/>
      <point x="186" y="700" type="line"/>
    </contour>
  </outline>
</glyph>
<glyph name="k" format="2">
  <advance width="630"/>
  <unicode hex="006B"/>
  <anchor x="271" y="0" name="bottom"/>
  <anchor x="395" y="700" name="top"/>
  <outline>
    <contour>
      <point x="138" y="127" type="line"/>
      <point x="175" y="127" type="line"/>
      <point x="592" y="500" type="line"/>
      <point x="479" y="500" type="line"/>
      <point x="229" y="277" type="line"/>
      <point x="221" y="277" type="line"/>
      <point x="164" y="277" type="line"/>
    </contour>
    <contour>
      <point x="78" y="0" type="line"/>
      <point x="172" y="0" type="line"/>
      <point x="296" y="700" type="line"/>
      <point x="202" y="700" type="line"/>
    </contour>
    <contour>
      <point x="424" y="0" type="line"/>
      <point x="530" y="0" type="line"/>
      <point x="376" y="380" type="line"/>
      <point x="308" y="291" type="line"/>
      <point x="301" y="252" type="line"/>
      <point x="323" y="252" type="line"/>
    </contour>
  </outline>
</glyph>
<glyph name="l" format="2">
  <advance width="630"/>
  <unicode hex="006C"/>
  <anchor x="271" y="0" name="bottom"/>
  <anchor x="335" y="363" name="center"/>
  <anchor x="395" y="700" name="top"/>
  <anchor x="550" y="700" name="topright"/>
  <outline>
    <contour>
      <point x="36" y="0" type="line"/>
      <point x="506" y="0" type="line"/>
      <point x="520" y="80" type="line"/>
      <point x="332" y="80" type="line"/>
      <point x="442" y="700" type="line"/>
      <point x="179" y="700" type="line"/>
      <point x="165" y="620" type="line"/>
      <point x="334" y="620" type="line"/>
      <point x="238" y="80" type="line"/>
      <point x="50" y="80" type="line"/>
    </contour>
  </outline>
</glyph>
<glyph name="m" format="2">
  <advance width="630"/>
  <unicode hex="006D"/>
  <anchor x="271" y="0" name="bottom"/>
  <anchor x="359" y="500" name="top"/>
  <outline>
    <contour>
      <point x="27" y="0" type="line"/>
      <point x="119" y="0" type="line"/>
      <point x="182" y="357" type="line" smooth="yes"/>
      <point x="191" y="406"/>
      <point x="213" y="433"/>
      <point x="254" y="433" type="curve" smooth="yes"/>
      <point x="283" y="433"/>
      <point x="303" y="413"/>
      <point x="295" y="370" type="curve" smooth="yes"/>
      <point x="230" y="0" type="line"/>
      <point x="322" y="0" type="line"/>
      <point x="385" y="357" type="line" smooth="yes"/>
      <point x="394" y="406"/>
      <point x="416" y="433"/>
      <point x="457" y="433" type="curve" smooth="yes"/>
      <point x="486" y="433"/>
      <point x="506" y="413"/>
      <point x="498" y="370" type="curve" smooth="yes"/>
      <point x="433" y="0" type="line"/>
      <point x="524" y="0" type="line"/>
      <point x="591" y="378" type="line" smooth="yes"/>
      <point x="605" y="462"/>
      <point x="576" y="510"/>
      <point x="509" y="510" type="curve" smooth="yes"/>
      <point x="458" y="510"/>
      <point x="421" y="485"/>
      <point x="396" y="456" type="curve"/>
      <point x="388" y="456" type="line"/>
      <point x="380" y="486"/>
      <point x="353" y="510"/>
      <point x="305" y="510" type="curve" smooth="yes"/>
      <point x="257" y="510"/>
      <point x="217" y="488"/>
      <point x="197" y="457" type="curve"/>
      <point x="189" y="457" type="line"/>
      <point x="196" y="500" type="line"/>
      <point x="115" y="500" type="line"/>
    </contour>
  </outline>
</glyph>
<glyph name="n" format="2">
  <advance width="630"/>
  <unicode hex="006E"/>
  <anchor x="272" y="0" name="bottom"/>
  <anchor x="360" y="500" name="top"/>
  <outline>
    <contour>
      <point x="71" y="0" type="line"/>
      <point x="165" y="0" type="line"/>
      <point x="213" y="270" type="line" smooth="yes"/>
      <point x="232" y="382"/>
      <point x="294" y="430"/>
      <point x="367" y="430" type="curve" smooth="yes"/>
      <point x="437" y="430"/>
      <point x="474" y="394"/>
      <point x="454" y="284" type="curve" smooth="yes"/>
      <point x="404" y="0" type="line"/>
      <point x="498" y="0" type="line"/>
      <point x="551" y="298" type="line" smooth="yes"/>
      <point x="576" y="441"/>
      <point x="524" y="510"/>
      <point x="415" y="510" type="curve" smooth="yes"/>
      <point x="340" y="510"/>
      <point x="280" y="478"/>
      <point x="242" y="425" type="curve"/>
      <point x="234" y="425" type="line"/>
      <point x="247" y="500" type="line"/>
      <point x="159" y="500" type="line"/>
    </contour>
  </outline>
</glyph>
<glyph name="o" format="2">
  <advance width="630"/>
  <unicode hex="006F"/>
  <anchor x="272" y="0" name="bottom"/>
  <anchor x="316" y="250" name="center"/>
  <anchor x="526" y="10" name="ogonek"/>
  <anchor x="360" y="500" name="top"/>
  <anchor x="655" y="500" name="topright"/>
  <outline>
    <contour>
      <point x="286" y="-10" type="curve" smooth="yes"/>
      <point x="454" y="-10"/>
      <point x="560" y="133"/>
      <point x="560" y="298" type="curve" smooth="yes"/>
      <point x="560" y="431"/>
      <point x="476" y="510"/>
      <point x="348" y="510" type="curve" smooth="yes"/>
      <point x="178" y="510"/>
      <point x="73" y="367"/>
      <point x="73" y="202" type="curve" smooth="yes"/>
      <point x="73" y="69"/>
      <point x="158" y="-10"/>
    </contour>
    <contour>
      <point x="294" y="70" type="curve" smooth="yes"/>
      <point x="215" y="70"/>
      <point x="169" y="118"/>
      <point x="169" y="203" type="curve" smooth="yes"/>
      <point x="169" y="313"/>
      <point x="226" y="430"/>
      <point x="340" y="430" type="curve" smooth="yes"/>
      <point x="419" y="430"/>
      <point x="465" y="382"/>
      <point x="465" y="297" type="curve" smooth="yes"/>
      <point x="465" y="187"/>
      <point x="408" y="70"/>
    </contour>
  </outline>
</glyph>
<glyph name="p" format="2">
  <advance width="630"/>
  <unicode hex="0070"/>
  <anchor x="274" y="0" name="bottom"/>
  <anchor x="362" y="500" name="top"/>
  <outline>
    <contour>
      <point x="384" y="510" type="curve" smooth="yes"/>
      <point x="308" y="510"/>
      <point x="253" y="477"/>
      <point x="218" y="431" type="curve"/>
      <point x="210" y="431" type="line"/>
      <point x="222" y="500" type="line"/>
      <point x="134" y="500" type="line"/>
      <point x="10" y="-200" type="line"/>
      <point x="104" y="-200" type="line"/>
      <point x="151" y="66" type="line"/>
      <point x="157" y="66" type="line"/>
      <point x="180" y="25"/>
      <point x="239" y="-10"/>
      <point x="309" y="-10" type="curve" smooth="yes"/>
      <point x="471" y="-10"/>
      <point x="574" y="121"/>
      <point x="574" y="299" type="curve" smooth="yes"/>
      <point x="574" y="429"/>
      <point x="502" y="510"/>
    </contour>
    <contour>
      <point x="351" y="430" type="curve" smooth="yes"/>
      <point x="431" y="430"/>
      <point x="477" y="382"/>
      <point x="477" y="297" type="curve" smooth="yes"/>
      <point x="477" y="187"/>
      <point x="420" y="70"/>
      <point x="305" y="70" type="curve" smooth="yes"/>
      <point x="226" y="70"/>
      <point x="179" y="118"/>
      <point x="179" y="203" type="curve" smooth="yes"/>
      <point x="179" y="313"/>
      <point x="237" y="430"/>
    </contour>
  </outline>
</glyph>
<glyph name="r" format="2">
  <advance width="630"/>
  <unicode hex="0072"/>
  <anchor x="271" y="0" name="bottom"/>
  <anchor x="359" y="500" name="top"/>
  <outline>
    <contour>
      <point x="56" y="0" type="line"/>
      <point x="467" y="0" type="line"/>
      <point x="481" y="80" type="line"/>
      <point x="301" y="80" type="line"/>
      <point x="334" y="265" type="line" smooth="yes"/>
      <point x="353" y="375"/>
      <point x="403" y="414"/>
      <point x="521" y="414" type="curve" smooth="yes"/>
      <point x="608" y="414" type="line"/>
      <point x="623" y="500" type="line"/>
      <point x="532" y="500" type="line" smooth="yes"/>
      <point x="449" y="500"/>
      <point x="396" y="475"/>
      <point x="368" y="413" type="curve"/>
      <point x="360" y="413" type="line"/>
      <point x="375" y="500" type="line"/>
      <point x="154" y="500" type="line"/>
      <point x="140" y="420" type="line"/>
      <point x="268" y="420" type="line"/>
      <point x="208" y="80" type="line"/>
      <point x="70" y="80" type="line"/>
    </contour>
  </outline>
</glyph>
<glyph name="s" format="2">
  <advance width="630"/>
  <unicode hex="0073"/>
  <anchor x="302" y="0" name="bottom"/>
  <anchor x="359" y="500" name="top"/>
  <outline>
    <contour>
      <point x="302" y="-11" type="curve" smooth="yes"/>
      <point x="423" y="-11"/>
      <point x="501" y="47"/>
      <point x="501" y="145" type="curve" smooth="yes"/>
      <point x="501" y="216"/>
      <point x="460" y="252"/>
      <point x="386" y="276" type="curve" smooth="yes"/>
      <point x="315" y="299" type="line" smooth="yes"/>
      <point x="268" y="314"/>
      <point x="246" y="330"/>
      <point x="246" y="360" type="curve" smooth="yes"/>
      <point x="246" y="407"/>
      <point x="286" y="433"/>
      <point x="343" y="433" type="curve" smooth="yes"/>
      <point x="432" y="433"/>
      <point x="448" y="386"/>
      <point x="438" y="326" type="curve"/>
      <point x="397" y="350" type="line"/>
      <point x="579" y="350" type="line"/>
      <point x="530" y="322" type="line"/>
      <point x="550" y="438"/>
      <point x="475" y="510"/>
      <point x="349" y="510" type="curve" smooth="yes"/>
      <point x="230" y="510"/>
      <point x="155" y="439"/>
      <point x="155" y="353" type="curve" smooth="yes"/>
      <point x="155" y="285"/>
      <point x="194" y="243"/>
      <point x="267" y="220" type="curve" smooth="yes"/>
      <point x="336" y="198" type="line" smooth="yes"/>
      <point x="384" y="183"/>
      <point x="408" y="167"/>
      <point x="408" y="132" type="curve" smooth="yes"/>
      <point x="408" y="90"/>
      <point x="376" y="63"/>
      <point x="310" y="63" type="curve" smooth="yes"/>
      <point x="234" y="63"/>
      <point x="185" y="94"/>
      <point x="196" y="170" type="curve"/>
      <point x="219" y="153" type="line"/>
      <point x="77" y="153" type="line"/>
      <point x="103" y="173" type="line"/>
      <point x="80" y="59"/>
      <point x="170" y="-11"/>
    </contour>
  </outline>
</glyph>
<glyph name="t" format="2">
  <advance width="630"/>
  <unicode hex="0074"/>
  <anchor x="342" y="0" name="bottom"/>
  <anchor x="315" y="250" name="center"/>
  <anchor x="387" y="660" name="top"/>
  <anchor x="689" y="700" name="topright"/>
  <outline>
    <contour>
      <point x="265" y="0" type="curve" smooth="yes"/>
      <point x="485" y="0" type="line"/>
      <point x="499" y="80" type="line"/>
      <point x="277" y="80" type="line"/>
      <point x="337" y="420" type="line"/>
      <point x="559" y="420" type="line"/>
      <point x="573" y="500" type="line"/>
      <point x="351" y="500" type="line"/>
      <point x="379" y="660" type="line"/>
      <point x="285" y="660" type="line"/>
      <point x="263" y="537" type="line" smooth="yes"/>
      <point x="259" y="513"/>
      <point x="244" y="500"/>
      <point x="220" y="500" type="curve" smooth="yes"/>
      <point x="101" y="500" type="line"/>
      <point x="87" y="420" type="line"/>
      <point x="243" y="420" type="line"/>
      <point x="186" y="95" type="line" smooth="yes"/>
      <point x="174" y="27"/>
      <point x="197" y="0"/>
    </contour>
  </outline>
</glyph>
<glyph name="u" format="2">
  <advance width="630"/>
  <unicode hex="0075"/>
  <anchor x="271" y="0" name="bottom"/>
  <anchor x="352" y="0" name="ogonek"/>
  <anchor x="359" y="500" name="top"/>
  <anchor x="654" y="500" name="topright"/>
  <outline>
    <contour>
      <point x="286" y="-10" type="curve" smooth="yes"/>
      <point x="413" y="-10"/>
      <point x="488" y="49"/>
      <point x="514" y="192" type="curve" smooth="yes"/>
      <point x="568" y="500" type="line"/>
      <point x="474" y="500" type="line"/>
      <point x="422" y="204" type="line" smooth="yes"/>
      <point x="406" y="112"/>
      <point x="362" y="70"/>
      <point x="287" y="70" type="curve" smooth="yes"/>
      <point x="211" y="70"/>
      <point x="176" y="112"/>
      <point x="192" y="204" type="curve" smooth="yes"/>
      <point x="244" y="500" type="line"/>
      <point x="150" y="500" type="line"/>
      <point x="96" y="192" type="line" smooth="yes"/>
      <point x="70" y="49"/>
      <point x="159" y="-10"/>
    </contour>
  </outline>
</glyph>
<glyph name="v" format="2">
  <advance width="630"/>
  <unicode hex="0076"/>
  <anchor x="271" y="0" name="bottom"/>
  <anchor x="359" y="500" name="top"/>
  <outline>
    <contour>
      <point x="295" y="113" type="line"/>
      <point x="287" y="113" type="line"/>
      <point x="226" y="500" type="line"/>
      <point x="126" y="500" type="line"/>
      <point x="216" y="0" type="line"/>
      <point x="324" y="0" type="line"/>
      <point x="592" y="500" type="line"/>
      <point x="492" y="500" type="line"/>
    </contour>
  </outline>
</glyph>
<glyph name="w" format="2">
  <advance width="630"/>
  <unicode hex="0077"/>
  <anchor x="271" y="0" name="bottom"/>
  <anchor x="359" y="500" name="top"/>
  <outline>
    <contour>
      <point x="83" y="0" type="line"/>
      <point x="199" y="0" type="line"/>
      <point x="334" y="380" type="line"/>
      <point x="342" y="380" type="line"/>
      <point x="343" y="0" type="line"/>
      <point x="460" y="0" type="line"/>
      <point x="603" y="500" type="line"/>
      <point x="515" y="500" type="line"/>
      <point x="416" y="120" type="line"/>
      <point x="408" y="120" type="line"/>
      <point x="405" y="500" type="line"/>
      <point x="313" y="500" type="line"/>
      <point x="176" y="120" type="line"/>
      <point x="168" y="120" type="line"/>
      <point x="203" y="500" type="line"/>
      <point x="115" y="500" type="line"/>
    </contour>
  </outline>
</glyph>
<glyph name="x" format="2">
  <advance width="630"/>
  <unicode hex="0078"/>
  <anchor x="271" y="0" name="bottom"/>
  <anchor x="359" y="500" name="top"/>
  <outline>
    <contour>
      <point x="34" y="0" type="line"/>
      <point x="141" y="0" type="line"/>
      <point x="300" y="187" type="line"/>
      <point x="308" y="187" type="line"/>
      <point x="401" y="0" type="line"/>
      <point x="508" y="0" type="line"/>
      <point x="379" y="250" type="line"/>
      <point x="589" y="500" type="line"/>
      <point x="482" y="500" type="line"/>
      <point x="330" y="313" type="line"/>
      <point x="322" y="313" type="line"/>
      <point x="236" y="500" type="line"/>
      <point x="129" y="500" type="line"/>
      <point x="251" y="250" type="line"/>
    </contour>
  </outline>
</glyph>
<glyph name="y" format="2">
  <advance width="630"/>
  <unicode hex="0079"/>
  <anchor x="271" y="0" name="bottom"/>
  <anchor x="359" y="500" name="top"/>
  <outline>
    <contour>
      <point x="299" y="113" type="line"/>
      <point x="291" y="113" type="line"/>
      <point x="231" y="500" type="line"/>
      <point x="132" y="500" type="line"/>
      <point x="233" y="-70" type="line"/>
      <point x="241" y="9" type="line"/>
      <point x="170" y="-119" type="line"/>
      <point x="42" y="-119" type="line"/>
      <point x="27" y="-200" type="line"/>
      <point x="138" y="-200" type="line" smooth="yes"/>
      <point x="200" y="-200"/>
      <point x="233" y="-182"/>
      <point x="262" y="-128" type="curve" smooth="yes"/>
      <point x="596" y="500" type="line"/>
      <point x="497" y="500" type="line"/>
    </contour>
  </outline>
</glyph>
<glyph name="z" format="2">
  <advance width="630"/>
  <unicode hex="007A"/>
  <anchor x="271" y="0" name="bottom"/>
  <anchor x="315" y="250" name="center"/>
  <anchor x="359" y="500" name="top"/>
  <outline>
    <contour>
      <point x="70" y="0" type="line"/>
      <point x="471" y="0" type="line"/>
      <point x="485" y="80" type="line"/>
      <point x="193" y="80" type="line"/>
      <point x="539" y="420" type="line"/>
      <point x="553" y="500" type="line"/>
      <point x="165" y="500" type="line"/>
      <point x="151" y="420" type="line"/>
      <point x="430" y="420" type="line"/>
      <point x="84" y="80" type="line"/>
    </contour>
  </outline>
</glyph>
<glyph name="braceleft" format="2">
  <advance width="630"/>
  <unicode hex="007B"/>
  <outline>
    <contour>
      <point x="138" y="307" type="line"/>
      <point x="184" y="297"/>
      <point x="225" y="287"/>
      <point x="208" y="192" type="curve" smooth="yes"/>
      <point x="176" y="9" type="line" smooth="yes"/>
      <point x="162" y="-69"/>
      <point x="192" y="-105"/>
      <point x="270" y="-105" type="curve" smooth="yes"/>
      <point x="441" y="-105" type="line"/>
      <point x="455" y="-25" type="line"/>
      <point x="261" y="-25" type="line"/>
      <point x="306" y="231" type="line" smooth="yes"/>
      <point x="317" y="296"/>
      <point x="299" y="331"/>
      <point x="236" y="341" type="curve"/>
      <point x="238" y="349" type="line"/>
      <point x="303" y="359"/>
      <point x="335" y="394"/>
      <point x="346" y="459" type="curve" smooth="yes"/>
      <point x="391" y="715" type="line"/>
      <point x="585" y="715" type="line"/>
      <point x="599" y="795" type="line"/>
      <point x="428" y="795" type="line" smooth="yes"/>
      <point x="350" y="795"/>
      <point x="308" y="759"/>
      <point x="294" y="681" type="curve" smooth="yes"/>
      <point x="262" y="498" type="line" smooth="yes"/>
      <point x="245" y="403"/>
      <point x="200" y="393"/>
      <point x="152" y="383" type="curve"/>
    </contour>
  </outline>
</glyph>
<glyph name="AE" format="2">
  <advance width="630"/>
  <unicode hex="00C6"/>
  <outline>
    <contour>
      <point x="452" y="620" type="line"/>
      <point x="466" y="700" type="line"/>
      <point x="289" y="700" type="line"/>
      <point x="-14" y="0" type="line"/>
      <point x="87" y="0" type="line"/>
      <point x="349" y="620" type="line"/>
    </contour>
    <contour>
      <point x="172" y="288" type="line"/>
      <point x="138" y="208" type="line"/>
      <point x="379" y="208" type="line"/>
      <point x="393" y="288" type="line"/>
    </contour>
    <contour>
      <point x="281" y="0" type="line"/>
      <point x="550" y="0" type="line"/>
      <point x="564" y="80" type="line"/>
      <point x="385" y="80" type="line"/>
      <point x="428" y="320" type="line"/>
      <point x="553" y="320" type="line"/>
      <point x="567" y="400" type="line"/>
      <point x="442" y="400" type="line"/>
      <point x="481" y="620" type="line"/>
      <point x="650" y="620" type="line"/>
      <point x="664" y="700" type="line"/>
      <point x="405" y="700" type="line"/>
    </contour>
  </outline>
</glyph>
<glyph name="Thorn" format="2">
  <advance width="630"/>
  <unicode hex="00DE"/>
  <outline>
    <contour>
      <point x="147" y="155" type="line"/>
      <point x="359" y="155" type="line" smooth="yes"/>
      <point x="510" y="155"/>
      <point x="611" y="237"/>
      <point x="611" y="387" type="curve" smooth="yes"/>
      <point x="611" y="500"/>
      <point x="541" y="577"/>
      <point x="374" y="577" type="curve" smooth="yes"/>
      <point x="232" y="577" type="line"/>
      <point x="217" y="491" type="line"/>
      <point x="372" y="491" type="line" smooth="yes"/>
      <point x="470" y="491"/>
      <point x="513" y="448"/>
      <point x="513" y="382" type="curve" smooth="yes"/>
      <point x="513" y="292"/>
      <point x="461" y="241"/>
      <point x="346" y="241" type="curve" smooth="yes"/>
      <point x="162" y="241" type="line"/>
    </contour>
    <contour>
      <point x="82" y="0" type="line"/>
      <point x="178" y="0" type="line"/>
      <point x="302" y="700" type="line"/>
      <point x="206" y="700" type="line"/>
    </contour>
  </outline>
</glyph>
<glyph name="germandbls" format="2">
  <advance width="630"/>
  <unicode hex="00DF"/>
  <outline>
    <contour>
      <point x="77" y="0" type="line"/>
      <point x="173" y="0" type="line"/>
      <point x="259" y="486" type="line" smooth="yes"/>
      <point x="275" y="576"/>
      <point x="326" y="614"/>
      <point x="388" y="614" type="curve" smooth="yes"/>
      <point x="443" y="614"/>
      <point x="477" y="582"/>
      <point x="477" y="530" type="curve" smooth="yes"/>
      <point x="477" y="474"/>
      <point x="441" y="406"/>
      <point x="342" y="406" type="curve" smooth="yes"/>
      <point x="332" y="406" type="line"/>
      <point x="317" y="320" type="line"/>
      <point x="332" y="320" type="line" smooth="yes"/>
      <point x="407" y="320"/>
      <point x="445" y="277"/>
      <point x="445" y="221" type="curve" smooth="yes"/>
      <point x="445" y="134"/>
      <point x="384" y="86"/>
      <point x="290" y="86" type="curve" smooth="yes"/>
      <point x="275" y="86" type="line"/>
      <point x="260" y="0" type="line"/>
      <point x="295" y="0" type="line" smooth="yes"/>
      <point x="450" y="0"/>
      <point x="541" y="95"/>
      <point x="541" y="224" type="curve" smooth="yes"/>
      <point x="541" y="297"/>
      <point x="511" y="343"/>
      <point x="457" y="363" type="curve"/>
      <point x="459" y="371" type="line"/>
      <point x="547" y="411"/>
      <point x="576" y="486"/>
      <point x="576" y="544" type="curve" smooth="yes"/>
      <point x="576" y="623"/>
      <point x="520" y="700"/>
      <point x="397" y="700" type="curve" smooth="yes"/>
      <point x="249" y="700"/>
      <point x="184" y="607"/>
      <point x="163" y="486" type="curve" smooth="yes"/>
    </contour>
  </outline>
</glyph>
<glyph name="ae" format="2">
  <advance width="630"/>
  <unicode hex="00E6"/>
  <outline>
    <contour>
      <point x="155" y="-10" type="curve" smooth="yes"/>
      <point x="218" y="-10"/>
      <point x="263" y="23"/>
      <point x="293" y="66" type="curve"/>
      <point x="301" y="66" type="line"/>
      <point x="310" y="24"/>
      <point x="353" y="-9"/>
      <point x="410" y="-9" type="curve" smooth="yes"/>
      <point x="483" y="-9"/>
      <point x="557" y="38"/>
      <point x="593" y="145" type="curve"/>
      <point x="507" y="145" type="line"/>
      <point x="492" y="100"/>
      <point x="464" y="70"/>
      <point x="426" y="70" type="curve" smooth="yes"/>
      <point x="355" y="70"/>
      <point x="368" y="174"/>
      <point x="379" y="231" type="curve" smooth="yes"/>
      <point x="386" y="273" type="line" smooth="yes"/>
      <point x="408" y="397"/>
      <point x="445" y="435"/>
      <point x="492" y="435" type="curve" smooth="yes"/>
      <point x="555" y="435"/>
      <point x="544" y="342"/>
      <point x="536" y="291" type="curve"/>
      <point x="371" y="291" type="line"/>
      <point x="360" y="225" type="line"/>
      <point x="609" y="225" type="line"/>
      <point x="619" y="259"/>
      <point x="626" y="313"/>
      <point x="626" y="350" type="curve" smooth="yes"/>
      <point x="626" y="455"/>
      <point x="581" y="510"/>
      <point x="509" y="510" type="curve" smooth="yes"/>
      <point x="467" y="510"/>
      <point x="427" y="493"/>
      <point x="395" y="463" type="curve"/>
      <point x="387" y="463" type="line"/>
      <point x="356" y="499"/>
      <point x="311" y="510"/>
      <point x="262" y="510" type="curve" smooth="yes"/>
      <point x="162" y="510"/>
      <point x="98" y="448"/>
      <point x="75" y="350" type="curve"/>
      <point x="163" y="350" type="line"/>
      <point x="177" y="400"/>
      <point x="203" y="430"/>
      <point x="251" y="430" type="curve" smooth="yes"/>
      <point x="307" y="430"/>
      <point x="318" y="383"/>
      <point x="310" y="340" type="curve" smooth="yes"/>
      <point x="276" y="150" type="line" smooth="yes"/>
      <point x="266" y="90"/>
      <point x="223" y="64"/>
      <point x="178" y="64" type="curve" smooth="yes"/>
      <point x="141" y="64"/>
      <point x="117" y="88"/>
      <point x="117" y="123" type="curve" smooth="yes"/>
      <point x="117" y="193"/>
      <point x="190" y="225"/>
      <point x="278" y="225" type="curve" smooth="yes"/>
      <point x="305" y="225" type="line"/>
      <point x="316" y="291" type="line"/>
      <point x="278" y="291" type="line" smooth="yes"/>
      <point x="149" y="291"/>
      <point x="25" y="239"/>
      <point x="25" y="109" type="curve" smooth="yes"/>
      <point x="25" y="33"/>
      <point x="76" y="-10"/>
    </contour>
  </outline>
</glyph>
<glyph name="eth" format="2">
  <advance width="630"/>
  <unicode hex="00F0"/>
  <outline>
    <contour>
      <point x="265" y="-10" type="curve" smooth="yes"/>
      <point x="405" y="-10"/>
      <point x="526" y="86"/>
      <point x="558" y="265" type="curve" smooth="yes"/>
      <point x="594" y="470"/>
      <point x="493" y="598"/>
      <point x="390" y="700" type="curve"/>
      <point x="263" y="700" type="line"/>
      <point x="352" y="622"/>
      <point x="414" y="544"/>
      <point x="450" y="453" type="curve"/>
      <point x="437" y="448" type="line"/>
      <point x="415" y="481"/>
      <point x="379" y="500"/>
      <point x="317" y="500" type="curve" smooth="yes"/>
      <point x="208" y="500"/>
      <point x="102" y="404"/>
      <point x="74" y="245" type="curve" smooth="yes"/>
      <point x="46" y="86"/>
      <point x="125" y="-10"/>
    </contour>
    <contour>
      <point x="284" y="70" type="curve" smooth="yes"/>
      <point x="195" y="70"/>
      <point x="151" y="134"/>
      <point x="171" y="248" type="curve" smooth="yes"/>
      <point x="191" y="362"/>
      <point x="257" y="426"/>
      <point x="346" y="426" type="curve" smooth="yes"/>
      <point x="435" y="426"/>
      <point x="479" y="362"/>
      <point x="459" y="248" type="curve" smooth="yes"/>
      <point x="439" y="134"/>
      <point x="373" y="70"/>
    </contour>
    <contour>
      <point x="242" y="540" type="line"/>
      <point x="548" y="615" type="line"/>
      <point x="558" y="675" type="line"/>
      <point x="253" y="600" type="line"/>
    </contour>
  </outline>
</glyph>
<glyph name="idotless" format="2">
  <advance width="630"/>
  <unicode hex="0131"/>
  <anchor x="271" y="0" name="bottom"/>
  <anchor x="480" y="0" name="ogonek"/>
  <anchor x="351" y="500" name="top"/>
  <outline>
    <contour>
      <point x="70" y="0" type="line"/>
      <point x="480" y="0" type="line"/>
      <point x="494" y="80" type="line"/>
      <point x="336" y="80" type="line"/>
      <point x="410" y="500" type="line"/>
      <point x="178" y="500" type="line"/>
      <point x="164" y="420" type="line"/>
      <point x="302" y="420" type="line"/>
      <point x="242" y="80" type="line"/>
      <point x="84" y="80" type="line"/>
    </contour>
  </outline>
</glyph>
<glyph name="OE" format="2">
  <advance width="630"/>
  <unicode hex="0152"/>
  <outline>
    <contour>
      <point x="171" y="-10" type="curve" smooth="yes"/>
      <point x="219" y="-10"/>
      <point x="260" y="7"/>
      <point x="294" y="53" type="curve"/>
      <point x="303" y="53" type="line"/>
      <point x="293" y="0" type="line"/>
      <point x="568" y="0" type="line"/>
      <point x="583" y="82" type="line"/>
      <point x="399" y="82" type="line"/>
      <point x="441" y="319" type="line"/>
      <point x="565" y="319" type="line"/>
      <point x="579" y="401" type="line"/>
      <point x="455" y="401" type="line"/>
      <point x="493" y="618" type="line"/>
      <point x="671" y="618" type="line"/>
      <point x="686" y="700" type="line"/>
      <point x="417" y="700" type="line"/>
      <point x="407" y="647" type="line"/>
      <point x="398" y="647" type="line"/>
      <point x="380" y="691"/>
      <point x="335" y="710"/>
      <point x="295" y="710" type="curve" smooth="yes"/>
      <point x="169" y="710"/>
      <point x="95" y="590"/>
      <point x="53" y="355" type="curve" smooth="yes"/>
      <point x="51" y="345" type="line" smooth="yes"/>
      <point x="4" y="111"/>
      <point x="54" y="-10"/>
    </contour>
    <contour>
      <point x="205" y="76" type="curve" smooth="yes"/>
      <point x="132" y="76"/>
      <point x="115" y="149"/>
      <point x="149" y="345" type="curve" smooth="yes"/>
      <point x="151" y="355" type="line" smooth="yes"/>
      <point x="186" y="551"/>
      <point x="228" y="624"/>
      <point x="301" y="624" type="curve" smooth="yes"/>
      <point x="370" y="624"/>
      <point x="388" y="551"/>
      <point x="354" y="355" type="curve" smooth="yes"/>
      <point x="352" y="345" type="line" smooth="yes"/>
      <point x="317" y="149"/>
      <point x="274" y="76"/>
    </contour>
  </outline>
</glyph>
<glyph name="oe" format="2">
  <advance width="630"/>
  <unicode hex="0153"/>
  <outline>
    <contour>
      <point x="151" y="-10" type="curve" smooth="yes"/>
      <point x="200" y="-10"/>
      <point x="245" y="11"/>
      <point x="279" y="60" type="curve"/>
      <point x="286" y="60" type="line"/>
      <point x="304" y="10"/>
      <point x="339" y="-10"/>
      <point x="387" y="-10" type="curve" smooth="yes"/>
      <point x="473" y="-10"/>
      <point x="538" y="53"/>
      <point x="575" y="164" type="curve"/>
      <point x="487" y="164" type="line"/>
      <point x="466" y="99"/>
      <point x="436" y="70"/>
      <point x="401" y="70" type="curve" smooth="yes"/>
      <point x="369" y="70"/>
      <point x="351" y="96"/>
      <point x="351" y="158" type="curve" smooth="yes"/>
      <point x="351" y="224"/>
      <point x="378" y="430"/>
      <point x="465" y="430" type="curve" smooth="yes"/>
      <point x="529" y="430"/>
      <point x="509" y="300"/>
      <point x="505" y="252" type="curve"/>
      <point x="556" y="294" type="line"/>
      <point x="311" y="294" type="line"/>
      <point x="299" y="223" type="line"/>
      <point x="589" y="223" type="line"/>
      <point x="599" y="263"/>
      <point x="604" y="302"/>
      <point x="604" y="343" type="curve" smooth="yes"/>
      <point x="604" y="455"/>
      <point x="565" y="510"/>
      <point x="485" y="510" type="curve" smooth="yes"/>
      <point x="436" y="510"/>
      <point x="386" y="489"/>
      <point x="353" y="438" type="curve"/>
      <point x="345" y="438" type="line"/>
      <point x="326" y="487"/>
      <point x="295" y="510"/>
      <point x="243" y="510" type="curve" smooth="yes"/>
      <point x="79" y="510"/>
      <point x="29" y="276"/>
      <point x="29" y="152" type="curve" smooth="yes"/>
      <point x="29" y="47"/>
      <point x="70" y="-10"/>
    </contour>
    <contour>
      <point x="167" y="70" type="curve" smooth="yes"/>
      <point x="135" y="70"/>
      <point x="117" y="96"/>
      <point x="117" y="158" type="curve" smooth="yes"/>
      <point x="117" y="224"/>
      <point x="144" y="430"/>
      <point x="231" y="430" type="curve" smooth="yes"/>
      <point x="263" y="430"/>
      <point x="282" y="404"/>
      <point x="282" y="344" type="curve" smooth="yes"/>
      <point x="282" y="277"/>
      <point x="254" y="70"/>
    </contour>
  </outline>
</glyph>
<glyph name="Schwa" format="2">
  <advance width="630"/>
  <unicode hex="018F"/>
  <anchor x="275" y="0" name="bottom"/>
  <anchor x="399" y="700" name="top"/>
  <outline>
    <contour>
      <point x="281" y="-10" type="curve" smooth="yes"/>
      <point x="518" y="-10"/>
      <point x="610" y="249"/>
      <point x="610" y="470" type="curve" smooth="yes"/>
      <point x="610" y="632"/>
      <point x="520" y="710"/>
      <point x="390" y="710" type="curve" smooth="yes"/>
      <point x="251" y="710"/>
      <point x="143" y="612"/>
      <point x="111" y="460" type="curve"/>
      <point x="71" y="483" type="line"/>
      <point x="264" y="483" type="line"/>
      <point x="211" y="456" type="line"/>
      <point x="232" y="558"/>
      <point x="294" y="624"/>
      <point x="385" y="624" type="curve" smooth="yes"/>
      <point x="478" y="624"/>
      <point x="512" y="566"/>
      <point x="512" y="470" type="curve" smooth="yes"/>
      <point x="512" y="348"/>
      <point x="469" y="76"/>
      <point x="289" y="76" type="curve" smooth="yes"/>
      <point x="171" y="76"/>
      <point x="145" y="183"/>
      <point x="174" y="350" type="curve" smooth="yes"/>
      <point x="176" y="363" type="line"/>
      <point x="108" y="288" type="line"/>
      <point x="529" y="288" type="line"/>
      <point x="544" y="374" type="line"/>
      <point x="81" y="374" type="line"/>
      <point x="77" y="350" type="line" smooth="yes"/>
      <point x="34" y="108"/>
      <point x="120" y="-10"/>
    </contour>
  </outline>
</glyph>
<glyph name="jdotless" format="2">
  <advance width="630"/>
  <unicode hex="0237"/>
  <anchor x="273" y="-200" name="bottom"/>
  <anchor x="397" y="500" name="top"/>
  <outline>
    <contour>
      <point x="55" y="-200" type="line"/>
      <point x="222" y="-200" type="line" smooth="yes"/>
      <point x="300" y="-200"/>
      <point x="343" y="-164"/>
      <point x="356" y="-86" type="curve" smooth="yes"/>
      <point x="460" y="500" type="line"/>
      <point x="160" y="500" type="line"/>
      <point x="146" y="420" type="line"/>
      <point x="352" y="420" type="line"/>
      <point x="256" y="-120" type="line"/>
      <point x="69" y="-120" type="line"/>
    </contour>
  </outline>
</glyph>
<glyph name="schwa" format="2">
  <advance width="630"/>
  <unicode hex="0259"/>
  <outline>
    <contour>
      <point x="283" y="-9" type="curve" smooth="yes"/>
      <point x="460" y="-9"/>
      <point x="553" y="141"/>
      <point x="553" y="297" type="curve" smooth="yes"/>
      <point x="553" y="437"/>
      <point x="470" y="510"/>
      <point x="347" y="510" type="curve" smooth="yes"/>
      <point x="232" y="510"/>
      <point x="140" y="449"/>
      <point x="104" y="336" type="curve"/>
      <point x="71" y="365" type="line"/>
      <point x="250" y="358" type="line"/>
      <point x="197" y="329" type="line"/>
      <point x="212" y="388"/>
      <point x="263" y="431"/>
      <point x="339" y="431" type="curve" smooth="yes"/>
      <point x="443" y="431"/>
      <point x="473" y="356"/>
      <point x="456" y="265" type="curve" smooth="yes"/>
      <point x="448" y="223" type="line" smooth="yes"/>
      <point x="432" y="130"/>
      <point x="379" y="67"/>
      <point x="292" y="67" type="curve" smooth="yes"/>
      <point x="217" y="67"/>
      <point x="177" y="116"/>
      <point x="177" y="191" type="curve" smooth="yes"/>
      <point x="177" y="207"/>
      <point x="180" y="228"/>
      <point x="188" y="242" type="curve"/>
      <point x="135" y="214" type="line"/>
      <point x="482" y="214" type="line"/>
      <point x="482" y="292" type="line"/>
      <point x="98" y="292" type="line"/>
      <point x="92" y="272"/>
      <point x="82" y="229"/>
      <point x="82" y="185" type="curve" smooth="yes"/>
      <point x="82" y="68"/>
      <point x="161" y="-9"/>
    </contour>
  </outline>
</glyph>
<glyph name="acutecomb" format="2">
  <advance width="630"/>
  <unicode hex="0301"/>
  <note>
changer angle black / black italic
</note>
  <anchor x="299" y="500" name="_top"/>
  <anchor x="394" y="700" name="top"/>
  <outline>
    <contour>
      <point x="489" y="700" type="line"/>
      <point x="372" y="700" type="line"/>
      <point x="275" y="560" type="line"/>
      <point x="355" y="560" type="line"/>
    </contour>
  </outline>
</glyph>
<glyph name="tildecomb" format="2">
  <advance width="630"/>
  <unicode hex="0303"/>
  <anchor x="360" y="500" name="_top"/>
  <anchor x="394" y="688" name="top"/>
  <outline>
    <contour>
      <point x="439" y="568" type="curve" smooth="yes"/>
      <point x="486" y="568"/>
      <point x="514" y="596"/>
      <point x="524" y="652" type="curve" smooth="yes"/>
      <point x="529" y="677" type="line"/>
      <point x="473" y="677" type="line"/>
      <point x="470" y="660" type="line" smooth="yes"/>
      <point x="466" y="641"/>
      <point x="458" y="631"/>
      <point x="445" y="631" type="curve" smooth="yes"/>
      <point x="432" y="631"/>
      <point x="421" y="638"/>
      <point x="407" y="648" type="curve" smooth="yes"/>
      <point x="387" y="661" type="line" smooth="yes"/>
      <point x="370" y="670"/>
      <point x="355" y="677"/>
      <point x="335" y="677" type="curve" smooth="yes"/>
      <point x="286" y="677"/>
      <point x="250" y="650"/>
      <point x="240" y="596" type="curve" smooth="yes"/>
      <point x="236" y="570" type="line"/>
      <point x="295" y="570" type="line"/>
      <point x="297" y="585" type="line" smooth="yes"/>
      <point x="301" y="603"/>
      <point x="309" y="614"/>
      <point x="326" y="614" type="curve" smooth="yes"/>
      <point x="338" y="614"/>
      <point x="346" y="609"/>
      <point x="355" y="602" type="curve" smooth="yes"/>
      <point x="382" y="586" type="line" smooth="yes"/>
      <point x="395" y="577"/>
      <point x="414" y="568"/>
    </contour>
  </outline>
</glyph>
<glyph name="brevecomb" format="2">
  <advance width="630"/>
  <unicode hex="0306"/>
  <anchor x="366" y="500" name="_top"/>
  <anchor x="401" y="700" name="top"/>
  <outline>
    <contour>
      <point x="375" y="554" type="curve" smooth="yes"/>
      <point x="468" y="554"/>
      <point x="564" y="613"/>
      <point x="586" y="741" type="curve"/>
      <point x="633" y="700" type="line"/>
      <point x="469" y="700" type="line"/>
      <point x="510" y="731" type="line"/>
      <point x="497" y="657"/>
      <point x="444" y="615"/>
      <point x="386" y="615" type="curve" smooth="yes"/>
      <point x="328" y="615"/>
      <point x="289" y="657"/>
      <point x="302" y="731" type="curve"/>
      <point x="333" y="700" type="line"/>
      <point x="169" y="700" type="line"/>
      <point x="230" y="741" type="line"/>
      <point x="208" y="613"/>
      <point x="282" y="554"/>
    </contour>
  </outline>
</glyph>
<glyph name="dotaccentcomb" format="2">
  <advance width="630"/>
  <unicode hex="0307"/>
  <anchor x="359" y="500" name="_top"/>
  <anchor x="398" y="723" name="top"/>
  <outline>
    <contour>
      <point x="374" y="583" type="curve" smooth="yes"/>
      <point x="413" y="583"/>
      <point x="449" y="613"/>
      <point x="456" y="653" type="curve" smooth="yes"/>
      <point x="463" y="691"/>
      <point x="437" y="723"/>
      <point x="398" y="723" type="curve" smooth="yes"/>
      <point x="359" y="723"/>
      <point x="323" y="691"/>
      <point x="316" y="653" type="curve" smooth="yes"/>
      <point x="309" y="613"/>
      <point x="335" y="583"/>
    </contour>
  </outline>
</glyph>
<glyph name="dieresiscomb" format="2">
  <advance width="630"/>
  <unicode hex="0308"/>
  <anchor x="301" y="500" name="_top"/>
  <anchor x="332" y="673" name="top"/>
  <outline>
    <contour>
      <point x="225" y="568" type="curve" smooth="yes"/>
      <point x="255" y="568"/>
      <point x="284" y="591"/>
      <point x="289" y="622" type="curve" smooth="yes"/>
      <point x="294" y="652"/>
      <point x="275" y="676"/>
      <point x="245" y="676" type="curve" smooth="yes"/>
      <point x="214" y="676"/>
      <point x="186" y="652"/>
      <point x="181" y="622" type="curve" smooth="yes"/>
      <point x="176" y="591"/>
      <point x="194" y="568"/>
    </contour>
    <contour>
      <point x="401" y="568" type="curve" smooth="yes"/>
      <point x="432" y="568"/>
      <point x="460" y="591"/>
      <point x="465" y="622" type="curve" smooth="yes"/>
      <point x="470" y="652"/>
      <point x="452" y="676"/>
      <point x="421" y="676" type="curve" smooth="yes"/>
      <point x="391" y="676"/>
      <point x="362" y="652"/>
      <point x="357" y="622" type="curve" smooth="yes"/>
      <point x="352" y="591"/>
      <point x="371" y="568"/>
    </contour>
  </outline>
</glyph>
<glyph name="ringcomb" format="2">
  <advance width="630"/>
  <unicode hex="030A"/>
  <anchor x="356" y="500" name="_top"/>
  <anchor x="399" y="741" name="top"/>
  <outline>
    <contour>
      <point x="365" y="550" type="curve" smooth="yes"/>
      <point x="419" y="550"/>
      <point x="468" y="592"/>
      <point x="477" y="646" type="curve" smooth="yes"/>
      <point x="487" y="700"/>
      <point x="453" y="741"/>
      <point x="399" y="741" type="curve" smooth="yes"/>
      <point x="344" y="741"/>
      <point x="296" y="700"/>
      <point x="286" y="646" type="curve" smooth="yes"/>
      <point x="277" y="592"/>
      <point x="310" y="550"/>
    </contour>
    <contour>
      <point x="375" y="605" type="curve" smooth="yes"/>
      <point x="351" y="605"/>
      <point x="337" y="623"/>
      <point x="341" y="646" type="curve" smooth="yes"/>
      <point x="345" y="669"/>
      <point x="365" y="686"/>
      <point x="389" y="686" type="curve" smooth="yes"/>
      <point x="412" y="686"/>
      <point x="426" y="669"/>
      <point x="422" y="646" type="curve" smooth="yes"/>
      <point x="418" y="623"/>
      <point x="398" y="605"/>
    </contour>
  </outline>
</glyph>
<glyph name="hungarumlautcomb" format="2">
  <advance width="630"/>
  <unicode hex="030B"/>
  <anchor x="311" y="500" name="_top"/>
  <anchor x="394" y="700" name="top"/>
  <outline>
    <contour>
      <point x="584" y="700" type="line"/>
      <point x="467" y="700" type="line"/>
      <point x="370" y="560" type="line"/>
      <point x="450" y="560" type="line"/>
    </contour>
    <contour>
      <point x="394" y="700" type="line"/>
      <point x="277" y="700" type="line"/>
      <point x="180" y="560" type="line"/>
      <point x="260" y="560" type="line"/>
    </contour>
  </outline>
</glyph>
<glyph name="dotbelowcomb" format="2">
  <advance width="630"/>
  <unicode hex="0323"/>
  <anchor x="271" y="0" name="_bottom"/>
  <anchor x="236" y="-200" name="bottom"/>
  <outline>
    <contour>
      <point x="236" y="-200" type="curve" smooth="yes"/>
      <point x="275" y="-200"/>
      <point x="311" y="-170"/>
      <point x="318" y="-130" type="curve" smooth="yes"/>
      <point x="325" y="-92"/>
      <point x="299" y="-60"/>
      <point x="260" y="-60" type="curve" smooth="yes"/>
      <point x="221" y="-60"/>
      <point x="185" y="-92"/>
      <point x="178" y="-130" type="curve" smooth="yes"/>
      <point x="171" y="-170"/>
      <point x="197" y="-200"/>
    </contour>
  </outline>
</glyph>
<glyph name="commaaccentcomb" format="2">
  <advance width="630"/>
  <unicode hex="0326"/>
  <anchor x="272" y="0" name="_bottom"/>
  <anchor x="213" y="-335" name="bottom"/>
  <outline>
    <contour>
      <point x="179" y="-121" type="curve" smooth="yes"/>
      <point x="172" y="-159"/>
      <point x="192" y="-183"/>
      <point x="216" y="-190" type="curve"/>
      <point x="166" y="-280" type="line"/>
      <point x="221" y="-280" type="line"/>
      <point x="287" y="-192" type="line" smooth="yes"/>
      <point x="358" y="-98"/>
      <point x="311" y="-51"/>
      <point x="267" y="-51" type="curve" smooth="yes"/>
      <point x="226" y="-51"/>
      <point x="186" y="-79"/>
    </contour>
  </outline>
</glyph>
<glyph name="cedillacomb" format="2">
  <advance width="630"/>
  <unicode hex="0327"/>
  <anchor x="266" y="0" name="_bottom"/>
  <anchor x="216" y="-230" name="bottom"/>
  <outline>
    <contour>
      <point x="226" y="-200" type="line" smooth="yes"/>
      <point x="293" y="-200"/>
      <point x="336" y="-173"/>
      <point x="345" y="-121" type="curve" smooth="yes"/>
      <point x="353" y="-79"/>
      <point x="332" y="-45"/>
      <point x="258" y="-45" type="curve" smooth="yes"/>
      <point x="253" y="-45" type="line"/>
      <point x="251" y="-41" type="line"/>
      <point x="310" y="11" type="line"/>
      <point x="260" y="22" type="line"/>
      <point x="188" y="-44" type="line"/>
      <point x="179" y="-94" type="line"/>
      <point x="244" y="-94" type="line" smooth="yes"/>
      <point x="272" y="-94"/>
      <point x="280" y="-104"/>
      <point x="277" y="-122" type="curve" smooth="yes"/>
      <point x="274" y="-140"/>
      <point x="262" y="-150"/>
      <point x="234" y="-150" type="curve" smooth="yes"/>
      <point x="168" y="-150" type="line"/>
      <point x="159" y="-200" type="line"/>
    </contour>
  </outline>
</glyph>
<glyph name="ogonekcomb" format="2">
  <advance width="630"/>
  <unicode hex="0328"/>
  <anchor x="308" y="0" name="_ogonek"/>
  <outline>
    <contour>
      <point x="287" y="-200" type="curve" smooth="yes"/>
      <point x="308" y="-200" type="line"/>
      <point x="320" y="-131" type="line"/>
      <point x="311" y="-131" type="line" smooth="yes"/>
      <point x="259" y="-131"/>
      <point x="245" y="-106"/>
      <point x="250" y="-74" type="curve" smooth="yes"/>
      <point x="255" y="-47"/>
      <point x="272" y="-23"/>
      <point x="308" y="0" type="curve"/>
      <point x="257" y="4" type="line"/>
      <point x="214" y="-20"/>
      <point x="185" y="-60"/>
      <point x="178" y="-99" type="curve" smooth="yes"/>
      <point x="165" y="-169"/>
      <point x="213" y="-200"/>
    </contour>
  </outline>
</glyph>
<glyph name="strokeshortcomb" format="2">
  <advance width="630"/>
  <unicode hex="0335"/>
  <anchor x="333" y="382" name="_center"/>
  <outline>
    <contour>
      <point x="185" y="345" type="line"/>
      <point x="480" y="345" type="line"/>
      <point x="492" y="418" type="line"/>
      <point x="197" y="418" type="line"/>
    </contour>
  </outline>
</glyph>
<glyph name="slashlongcomb" format="2">
  <advance width="630"/>
  <unicode hex="0338"/>
  <anchor x="339" y="350" name="_center"/>
  <outline>
    <contour>
      <point x="574" y="700" type="line"/>
      <point x="9" y="0" type="line"/>
      <point x="103" y="0" type="line"/>
      <point x="668" y="700" type="line"/>
    </contour>
  </outline>
</glyph>
<glyph name="Germandbls" format="2">
  <advance width="630"/>
  <unicode hex="1E9E"/>
  <outline>
    <contour>
      <point x="57" y="0" type="line"/>
      <point x="153" y="0" type="line"/>
      <point x="262" y="614" type="line"/>
      <point x="498" y="614" type="line"/>
      <point x="341" y="399" type="line"/>
      <point x="326" y="318" type="line"/>
      <point x="366" y="318" type="line" smooth="yes"/>
      <point x="466" y="318"/>
      <point x="500" y="271"/>
      <point x="500" y="208" type="curve" smooth="yes"/>
      <point x="500" y="125"/>
      <point x="445" y="86"/>
      <point x="337" y="86" type="curve" smooth="yes"/>
      <point x="252" y="86" type="line"/>
      <point x="237" y="0" type="line"/>
      <point x="355" y="0" type="line" smooth="yes"/>
      <point x="512" y="0"/>
      <point x="597" y="79"/>
      <point x="597" y="214" type="curve" smooth="yes"/>
      <point x="597" y="320"/>
      <point x="529" y="396"/>
      <point x="368" y="396" type="curve" smooth="yes"/>
      <point x="353" y="396" type="line"/>
      <point x="404" y="363" type="line"/>
      <point x="600" y="614" type="line"/>
      <point x="615" y="700" type="line"/>
      <point x="277" y="700" type="line" smooth="yes"/>
      <point x="209" y="700"/>
      <point x="176" y="673"/>
      <point x="164" y="605" type="curve" smooth="yes"/>
    </contour>
  </outline>
</glyph>
<glyph name="endash" format="2">
  <advance width="630"/>
  <unicode hex="2013"/>
  <outline>
    <contour>
      <point x="106" y="230" type="line"/>
      <point x="516" y="230" type="line"/>
      <point x="530" y="304" type="line"/>
      <point x="120" y="304" type="line"/>
    </contour>
  </outline>
</glyph>
<glyph name="bullet" format="2">
  <advance width="630"/>
  <unicode hex="2022"/>
  <outline>
    <contour>
      <point x="294" y="131" type="curve" smooth="yes"/>
      <point x="369" y="131"/>
      <point x="438" y="188"/>
      <point x="452" y="265" type="curve" smooth="yes"/>
      <point x="465" y="338"/>
      <point x="417" y="399"/>
      <point x="342" y="399" type="curve" smooth="yes"/>
      <point x="267" y="399"/>
      <point x="197" y="338"/>
      <point x="184" y="265" type="curve" smooth="yes"/>
      <point x="170" y="188"/>
      <point x="219" y="131"/>
    </contour>
  </outline>
</glyph>
<glyph name="guilsinglleft" format="2">
  <advance width="630"/>
  <unicode hex="2039"/>
  <outline>
    <contour>
      <point x="409" y="60" type="line"/>
      <point x="302" y="260" type="line"/>
      <point x="479" y="460" type="line"/>
      <point x="367" y="460" type="line"/>
      <point x="193" y="260" type="line"/>
      <point x="298" y="60" type="line"/>
    </contour>
  </outline>
</glyph>
<glyph name="fraction" format="2">
  <advance width="630"/>
  <unicode hex="2044"/>
  <outline>
    <contour>
      <point x="-26" y="100" type="line"/>
      <point x="-44" y="0" type="line"/>
      <point x="692" y="600" type="line"/>
      <point x="709" y="700" type="line"/>
    </contour>
  </outline>
</glyph>
<glyph name="minus" format="2">
  <advance width="630"/>
  <unicode hex="2212"/>
  <outline>
    <contour>
      <point x="115" y="260" type="line"/>
      <point x="520" y="260" type="line"/>
      <point x="533" y="334" type="line"/>
      <point x="128" y="334" type="line"/>
    </contour>
  </outline>
</glyph>
<glyph name="M.ss02" format="2">
  <advance width="630"/>
  <anchor x="272" y="0" name="bottom"/>
  <anchor x="396" y="700" name="top"/>
  <outline>
    <contour>
      <point x="117" y="0" type="line"/>
      <point x="219" y="578" type="line"/>
      <point x="226" y="578" type="line"/>
      <point x="308" y="230" type="line"/>
      <point x="318" y="230" type="line"/>
      <point x="522" y="578" type="line"/>
      <point x="529" y="578" type="line"/>
      <point x="427" y="0" type="line"/>
      <point x="523" y="0" type="line"/>
      <point x="647" y="700" type="line"/>
      <point x="503" y="700" type="line"/>
      <point x="352" y="430" type="line"/>
      <point x="344" y="430" type="line"/>
      <point x="289" y="700" type="line"/>
      <point x="145" y="700" type="line"/>
      <point x="21" y="0" type="line"/>
    </contour>
  </outline>
</glyph>
<glyph name="W.ss02" format="2">
  <advance width="630"/>
  <anchor x="270" y="0" name="bottom"/>
  <anchor x="394" y="700" name="top"/>
  <outline>
    <contour>
      <point x="51" y="0" type="line"/>
      <point x="161" y="0" type="line"/>
      <point x="315" y="279" type="line"/>
      <point x="323" y="279" type="line"/>
      <point x="383" y="0" type="line"/>
      <point x="489" y="0" type="line"/>
      <point x="645" y="700" type="line"/>
      <point x="549" y="700" type="line"/>
      <point x="439" y="183" type="line"/>
      <point x="432" y="183" type="line"/>
      <point x="363" y="495" type="line"/>
      <point x="353" y="495" type="line"/>
      <point x="175" y="182" type="line"/>
      <point x="168" y="182" type="line"/>
      <point x="239" y="700" type="line"/>
      <point x="143" y="700" type="line"/>
    </contour>
  </outline>
</glyph>
<glyph name="_Qtail" format="2">
  <advance width="630"/>
  <anchor x="233" y="0" name="_bottom"/>
  <outline>
    <contour>
      <point x="193" y="54" type="line"/>
      <point x="179" y="-26" type="line" smooth="yes"/>
      <point x="165" y="-104"/>
      <point x="195" y="-140"/>
      <point x="273" y="-140" type="curve" smooth="yes"/>
      <point x="401" y="-140" type="line"/>
      <point x="415" y="-60" type="line"/>
      <point x="267" y="-60" type="line"/>
      <point x="287" y="54" type="line"/>
    </contour>
  </outline>
</glyph>
<glyph name=".notdef" format="2">
  <advance width="630"/>
  <outline>
    <contour>
      <point x="404" y="491" type="curve"/>
      <point x="357" y="431"/>
      <point x="316" y="372"/>
      <point x="274" y="315" type="curve"/>
      <point x="274" y="497" type="line"/>
      <point x="316" y="497"/>
      <point x="361" y="497"/>
    </contour>
    <contour>
      <point x="389" y="387" type="curve"/>
      <point x="344" y="387"/>
      <point x="312" y="360"/>
      <point x="288" y="332" type="curve"/>
      <point x="315" y="368"/>
      <point x="349" y="416"/>
      <point x="377" y="416" type="curve"/>
      <point x="430" y="475"/>
      <point x="445" y="489"/>
      <point x="461" y="499" type="curve"/>
      <point x="461" y="499" type="line"/>
      <point x="274" y="499" type="line"/>
      <point x="190" y="499" type="line"/>
      <point x="190" y="499" type="line"/>
      <point x="241" y="491"/>
      <point x="243" y="475"/>
      <point x="243" y="444" type="curve"/>
      <point x="243" y="255" type="line"/>
      <point x="243" y="224"/>
      <point x="241" y="206"/>
      <point x="190" y="201" type="curve"/>
      <point x="190" y="201" type="line"/>
      <point x="274" y="201" type="line"/>
      <point x="274" y="313" type="line"/>
      <point x="295" y="343"/>
      <point x="336" y="383"/>
      <point x="377" y="383" type="curve"/>
      <point x="419" y="383"/>
      <point x="445" y="348"/>
      <point x="445" y="299" type="curve"/>
      <point x="445" y="244"/>
      <point x="412" y="197"/>
      <point x="373" y="197" type="curve"/>
      <point x="343" y="197"/>
      <point x="323" y="226"/>
      <point x="323" y="265" type="curve"/>
      <point x="323" y="272"/>
      <point x="324" y="279"/>
      <point x="325" y="283" type="curve"/>
      <point x="322" y="261"/>
      <point x="314" y="254"/>
      <point x="305" y="254" type="curve" smooth="yes"/>
      <point x="297" y="254"/>
      <point x="291" y="261"/>
      <point x="291" y="275" type="curve" smooth="yes"/>
      <point x="291" y="284"/>
      <point x="292" y="297"/>
      <point x="303" y="312" type="curve"/>
      <point x="291" y="299"/>
      <point x="288" y="285"/>
      <point x="288" y="268" type="curve" smooth="yes"/>
      <point x="288" y="231"/>
      <point x="323" y="196"/>
      <point x="375" y="196" type="curve" smooth="yes"/>
      <point x="431" y="196"/>
      <point x="481" y="242"/>
      <point x="481" y="299" type="curve"/>
      <point x="481" y="353"/>
      <point x="439" y="387"/>
    </contour>
    <contour>
      <point x="333" y="36" type="curve" smooth="yes"/>
      <point x="160" y="36"/>
      <point x="18" y="177"/>
      <point x="18" y="349" type="curve" smooth="yes"/>
      <point x="18" y="522"/>
      <point x="160" y="663"/>
      <point x="333" y="663" type="curve" smooth="yes"/>
      <point x="505" y="663"/>
      <point x="647" y="522"/>
      <point x="647" y="349" type="curve" smooth="yes"/>
      <point x="647" y="177"/>
      <point x="505" y="36"/>
    </contour>
  </outline>
</glyph>
<glyph name="_question" format="2">
  <advance width="639"/>
  <anchor x="284" y="0" name="dot"/>
  <outline>
    <contour>
      <point x="261" y="192" type="line"/>
      <point x="365" y="192" type="line"/>
      <point x="383" y="291" type="line"/>
      <point x="503" y="323"/>
      <point x="593" y="403"/>
      <point x="593" y="528" type="curve" smooth="yes"/>
      <point x="593" y="647"/>
      <point x="507" y="710"/>
      <point x="382" y="710" type="curve" smooth="yes"/>
      <point x="240" y="710"/>
      <point x="120" y="617"/>
      <point x="125" y="433" type="curve"/>
      <point x="86" y="469" type="line"/>
      <point x="270" y="469" type="line"/>
      <point x="220" y="432" type="line"/>
      <point x="209" y="555"/>
      <point x="281" y="622"/>
      <point x="377" y="622" type="curve" smooth="yes"/>
      <point x="445" y="622"/>
      <point x="491" y="582"/>
      <point x="491" y="522" type="curve" smooth="yes"/>
      <point x="491" y="435"/>
      <point x="435" y="393"/>
      <point x="337" y="364" type="curve" smooth="yes"/>
      <point x="301" y="353"/>
      <point x="286" y="332"/>
      <point x="279" y="295" type="curve" smooth="yes"/>
    </contour>
  </outline>
</glyph>
<glyph name="a.ss01" format="2">
  <advance width="630"/>
  <anchor x="278" y="0" name="bottom"/>
  <anchor x="509" y="0" name="ogonek"/>
  <anchor x="366" y="500" name="top"/>
  <outline>
    <contour>
      <point x="253" y="-10" type="curve" smooth="yes"/>
      <point x="321" y="-10"/>
      <point x="384" y="13"/>
      <point x="425" y="69" type="curve"/>
      <point x="433" y="69" type="line"/>
      <point x="421" y="0" type="line"/>
      <point x="509" y="0" type="line"/>
      <point x="598" y="500" type="line"/>
      <point x="510" y="500" type="line"/>
      <point x="498" y="431" type="line"/>
      <point x="490" y="431" type="line"/>
      <point x="469" y="473"/>
      <point x="409" y="510"/>
      <point x="334" y="510" type="curve" smooth="yes"/>
      <point x="149" y="510"/>
      <point x="69" y="354"/>
      <point x="69" y="191" type="curve" smooth="yes"/>
      <point x="69" y="58"/>
      <point x="151" y="-10"/>
    </contour>
    <contour>
      <point x="293" y="70" type="curve" smooth="yes"/>
      <point x="214" y="70"/>
      <point x="167" y="118"/>
      <point x="167" y="203" type="curve" smooth="yes"/>
      <point x="167" y="313"/>
      <point x="225" y="430"/>
      <point x="339" y="430" type="curve" smooth="yes"/>
      <point x="419" y="430"/>
      <point x="465" y="382"/>
      <point x="465" y="297" type="curve" smooth="yes"/>
      <point x="465" y="187"/>
      <point x="408" y="70"/>
    </contour>
  </outline>
</glyph>
<glyph name="ampersand.ss01" format="2">
  <advance width="630"/>
  <outline>
    <contour>
      <point x="253" y="-10" type="curve" smooth="yes"/>
      <point x="433" y="-10"/>
      <point x="552" y="121"/>
      <point x="586" y="314" type="curve" smooth="yes"/>
      <point x="597" y="378" type="line"/>
      <point x="512" y="378" type="line"/>
      <point x="500" y="311" type="line" smooth="yes"/>
      <point x="471" y="144"/>
      <point x="377" y="70"/>
      <point x="271" y="70" type="curve" smooth="yes"/>
      <point x="193" y="70"/>
      <point x="151" y="116"/>
      <point x="151" y="174" type="curve" smooth="yes"/>
      <point x="151" y="256"/>
      <point x="208" y="292"/>
      <point x="295" y="333" type="curve" smooth="yes"/>
      <point x="342" y="355" type="line" smooth="yes"/>
      <point x="453" y="408"/>
      <point x="535" y="446"/>
      <point x="535" y="572" type="curve" smooth="yes"/>
      <point x="535" y="647"/>
      <point x="477" y="710"/>
      <point x="379" y="710" type="curve" smooth="yes"/>
      <point x="242" y="710"/>
      <point x="181" y="620"/>
      <point x="181" y="514" type="curve" smooth="yes"/>
      <point x="181" y="456"/>
      <point x="200" y="412"/>
      <point x="241" y="343" type="curve" smooth="yes"/>
      <point x="441" y="0" type="line"/>
      <point x="550" y="0" type="line"/>
      <point x="551" y="3" type="line"/>
      <point x="325" y="385" type="line" smooth="yes"/>
      <point x="288" y="448"/>
      <point x="270" y="483"/>
      <point x="270" y="520" type="curve" smooth="yes"/>
      <point x="270" y="580"/>
      <point x="301" y="629"/>
      <point x="372" y="629" type="curve" smooth="yes"/>
      <point x="415" y="629"/>
      <point x="446" y="601"/>
      <point x="446" y="559" type="curve" smooth="yes"/>
      <point x="446" y="479"/>
      <point x="372" y="444"/>
      <point x="301" y="413" type="curve" smooth="yes"/>
      <point x="253" y="392" type="line" smooth="yes"/>
      <point x="128" y="337"/>
      <point x="53" y="263"/>
      <point x="53" y="159" type="curve" smooth="yes"/>
      <point x="53" y="42"/>
      <point x="132" y="-10"/>
    </contour>
  </outline>
</glyph>
<glyph name="braceleft.case" format="2">
  <advance width="630"/>
  <note>
braceleft.case
</note>
  <outline>
    <contour>
      <point x="147" y="312" type="line"/>
      <point x="193" y="302"/>
      <point x="234" y="292"/>
      <point x="217" y="197" type="curve" smooth="yes"/>
      <point x="202" y="114" type="line" smooth="yes"/>
      <point x="189" y="36"/>
      <point x="218" y="0"/>
      <point x="296" y="0" type="curve" smooth="yes"/>
      <point x="467" y="0" type="line"/>
      <point x="481" y="80" type="line"/>
      <point x="287" y="80" type="line"/>
      <point x="315" y="236" type="line" smooth="yes"/>
      <point x="326" y="301"/>
      <point x="308" y="336"/>
      <point x="245" y="346" type="curve"/>
      <point x="247" y="354" type="line"/>
      <point x="312" y="364"/>
      <point x="344" y="399"/>
      <point x="355" y="464" type="curve" smooth="yes"/>
      <point x="383" y="620" type="line"/>
      <point x="577" y="620" type="line"/>
      <point x="591" y="700" type="line"/>
      <point x="420" y="700" type="line" smooth="yes"/>
      <point x="342" y="700"/>
      <point x="299" y="664"/>
      <point x="286" y="586" type="curve" smooth="yes"/>
      <point x="271" y="503" type="line" smooth="yes"/>
      <point x="254" y="408"/>
      <point x="209" y="398"/>
      <point x="161" y="388" type="curve"/>
    </contour>
  </outline>
</glyph>
<glyph name="bracketleft.case" format="2">
  <advance width="630"/>
  <note>
bracketleft.case
</note>
  <outline>
    <contour>
      <point x="150" y="114" type="line" smooth="yes"/>
      <point x="137" y="36"/>
      <point x="166" y="0"/>
      <point x="244" y="0" type="curve" smooth="yes"/>
      <point x="415" y="0" type="line"/>
      <point x="429" y="80" type="line"/>
      <point x="235" y="80" type="line"/>
      <point x="331" y="620" type="line"/>
      <point x="525" y="620" type="line"/>
      <point x="539" y="700" type="line"/>
      <point x="368" y="700" type="line" smooth="yes"/>
      <point x="290" y="700"/>
      <point x="247" y="664"/>
      <point x="234" y="586" type="curve" smooth="yes"/>
    </contour>
  </outline>
</glyph>
<glyph name="brevecomb.case" format="2">
  <advance width="630"/>
  <anchor x="401" y="700" name="_top"/>
  <anchor x="434" y="887" name="top"/>
  <outline>
    <contour>
      <point x="408" y="744" type="curve" smooth="yes"/>
      <point x="501" y="744"/>
      <point x="594" y="803"/>
      <point x="616" y="928" type="curve"/>
      <point x="663" y="887" type="line"/>
      <point x="499" y="887" type="line"/>
      <point x="540" y="918" type="line"/>
      <point x="528" y="847"/>
      <point x="477" y="805"/>
      <point x="419" y="805" type="curve" smooth="yes"/>
      <point x="361" y="805"/>
      <point x="326" y="847"/>
      <point x="338" y="918" type="curve"/>
      <point x="366" y="887" type="line"/>
      <point x="205" y="887" type="line"/>
      <point x="266" y="928" type="line"/>
      <point x="244" y="803"/>
      <point x="315" y="744"/>
    </contour>
  </outline>
</glyph>
<glyph name="caroncomb.case" format="2">
  <advance width="630"/>
  <anchor x="396" y="700" name="_top"/>
  <anchor x="427" y="871" name="top"/>
  <outline>
    <contour>
      <point x="369" y="751" type="line"/>
      <point x="441" y="751" type="line"/>
      <point x="605" y="871" type="line"/>
      <point x="507" y="871" type="line"/>
      <point x="420" y="809" type="line"/>
      <point x="412" y="809" type="line"/>
      <point x="347" y="871" type="line"/>
      <point x="249" y="871" type="line"/>
    </contour>
  </outline>
</glyph>
<glyph name="circumflexcomb.case" format="2">
  <advance width="630"/>
  <anchor x="397" y="700" name="_top"/>
  <anchor x="428" y="871" name="top"/>
  <outline>
    <contour>
      <point x="228" y="751" type="line"/>
      <point x="326" y="751" type="line"/>
      <point x="413" y="813" type="line"/>
      <point x="421" y="813" type="line"/>
      <point x="486" y="751" type="line"/>
      <point x="584" y="751" type="line"/>
      <point x="464" y="871" type="line"/>
      <point x="392" y="871" type="line"/>
    </contour>
  </outline>
</glyph>
<glyph name="dieresiscomb.case" format="2">
  <advance width="630"/>
  <anchor x="395" y="700" name="_top"/>
  <anchor x="423" y="858" name="top"/>
  <outline>
    <contour>
      <point x="315" y="750" type="curve" smooth="yes"/>
      <point x="345" y="750"/>
      <point x="374" y="773"/>
      <point x="379" y="804" type="curve" smooth="yes"/>
      <point x="384" y="834"/>
      <point x="365" y="858"/>
      <point x="335" y="858" type="curve" smooth="yes"/>
      <point x="304" y="858"/>
      <point x="276" y="834"/>
      <point x="271" y="804" type="curve" smooth="yes"/>
      <point x="266" y="773"/>
      <point x="284" y="750"/>
    </contour>
    <contour>
      <point x="491" y="750" type="curve" smooth="yes"/>
      <point x="522" y="750"/>
      <point x="550" y="773"/>
      <point x="555" y="804" type="curve" smooth="yes"/>
      <point x="560" y="834"/>
      <point x="542" y="858"/>
      <point x="511" y="858" type="curve" smooth="yes"/>
      <point x="481" y="858"/>
      <point x="452" y="834"/>
      <point x="447" y="804" type="curve" smooth="yes"/>
      <point x="442" y="773"/>
      <point x="461" y="750"/>
    </contour>
  </outline>
</glyph>
<glyph name="dotaccentcomb.case" format="2">
  <advance width="630"/>
  <anchor x="394" y="700" name="_top"/>
  <anchor x="428" y="893" name="top"/>
  <outline>
    <contour>
      <point x="404" y="753" type="curve" smooth="yes"/>
      <point x="443" y="753"/>
      <point x="479" y="783"/>
      <point x="486" y="823" type="curve" smooth="yes"/>
      <point x="493" y="861"/>
      <point x="467" y="893"/>
      <point x="428" y="893" type="curve" smooth="yes"/>
      <point x="389" y="893"/>
      <point x="353" y="861"/>
      <point x="346" y="823" type="curve" smooth="yes"/>
      <point x="339" y="783"/>
      <point x="365" y="753"/>
    </contour>
  </outline>
</glyph>
<glyph name="eight.dnom" format="2">
  <advance width="630"/>
  <outline>
    <contour>
      <point x="280" y="-10" type="curve" smooth="yes"/>
      <point x="365" y="-10"/>
      <point x="428" y="32"/>
      <point x="428" y="100" type="curve" smooth="yes"/>
      <point x="428" y="128"/>
      <point x="412" y="149"/>
      <point x="382" y="167" type="curve"/>
      <point x="382" y="171" type="line"/>
      <point x="423" y="187"/>
      <point x="444" y="217"/>
      <point x="444" y="254" type="curve" smooth="yes"/>
      <point x="444" y="304"/>
      <point x="397" y="340"/>
      <point x="319" y="340" type="curve" smooth="yes"/>
      <point x="239" y="340"/>
      <point x="184" y="298"/>
      <point x="184" y="240" type="curve" smooth="yes"/>
      <point x="184" y="215"/>
      <point x="195" y="194"/>
      <point x="220" y="179" type="curve"/>
      <point x="218" y="175" type="line"/>
      <point x="169" y="156"/>
      <point x="145" y="126"/>
      <point x="145" y="82" type="curve" smooth="yes"/>
      <point x="145" y="28"/>
      <point x="197" y="-10"/>
    </contour>
    <contour>
      <point x="282" y="40" type="curve" smooth="yes"/>
      <point x="241" y="40"/>
      <point x="220" y="62"/>
      <point x="220" y="89" type="curve" smooth="yes"/>
      <point x="220" y="120"/>
      <point x="246" y="145"/>
      <point x="290" y="145" type="curve" smooth="yes"/>
      <point x="333" y="145"/>
      <point x="353" y="126"/>
      <point x="353" y="102" type="curve" smooth="yes"/>
      <point x="353" y="67"/>
      <point x="329" y="40"/>
    </contour>
    <contour>
      <point x="311" y="198" type="curve" smooth="yes"/>
      <point x="274" y="198"/>
      <point x="254" y="216"/>
      <point x="254" y="241" type="curve" smooth="yes"/>
      <point x="254" y="274"/>
      <point x="284" y="292"/>
      <point x="317" y="292" type="curve" smooth="yes"/>
      <point x="353" y="292"/>
      <point x="373" y="274"/>
      <point x="373" y="251" type="curve" smooth="yes"/>
      <point x="373" y="219"/>
      <point x="347" y="198"/>
    </contour>
  </outline>
</glyph>
<glyph name="five.dnom" format="2">
  <advance width="630"/>
  <outline>
    <contour>
      <point x="279" y="-10" type="curve" smooth="yes"/>
      <point x="368" y="-10"/>
      <point x="425" y="46"/>
      <point x="425" y="120" type="curve" smooth="yes"/>
      <point x="425" y="186"/>
      <point x="381" y="221"/>
      <point x="328" y="221" type="curve" smooth="yes"/>
      <point x="294" y="221"/>
      <point x="272" y="210"/>
      <point x="252" y="197" type="curve"/>
      <point x="248" y="197" type="line"/>
      <point x="272" y="276" type="line"/>
      <point x="427" y="276" type="line"/>
      <point x="438" y="336" type="line"/>
      <point x="227" y="336" type="line"/>
      <point x="162" y="129" type="line"/>
      <point x="230" y="129" type="line"/>
      <point x="240" y="150"/>
      <point x="264" y="169"/>
      <point x="298" y="169" type="curve" smooth="yes"/>
      <point x="329" y="169"/>
      <point x="358" y="148"/>
      <point x="358" y="116" type="curve" smooth="yes"/>
      <point x="358" y="76"/>
      <point x="332" y="47"/>
      <point x="284" y="47" type="curve" smooth="yes"/>
      <point x="246" y="47"/>
      <point x="223" y="71"/>
      <point x="227" y="104" type="curve"/>
      <point x="252" y="90" type="line"/>
      <point x="128" y="90" type="line"/>
      <point x="154" y="104" type="line"/>
      <point x="141" y="31"/>
      <point x="198" y="-10"/>
    </contour>
  </outline>
</glyph>
<glyph name="four.dnom" format="2">
  <advance width="630"/>
  <outline>
    <contour>
      <point x="295" y="0" type="line"/>
      <point x="358" y="0" type="line"/>
      <point x="418" y="340" type="line"/>
      <point x="350" y="340" type="line"/>
      <point x="147" y="126" type="line"/>
      <point x="137" y="68" type="line"/>
      <point x="428" y="68" type="line"/>
      <point x="438" y="123" type="line"/>
      <point x="218" y="123" type="line"/>
      <point x="332" y="241" type="line"/>
      <point x="337" y="241" type="line"/>
    </contour>
  </outline>
</glyph>
<glyph name="g.ss01" format="2">
  <advance width="630"/>
  <anchor x="236" y="-200" name="bottom"/>
  <anchor x="359" y="500" name="top"/>
  <outline>
    <contour>
      <point x="243" y="-210" type="curve" smooth="yes"/>
      <point x="384" y="-210"/>
      <point x="477" y="-149"/>
      <point x="502" y="-3" type="curve" smooth="yes"/>
      <point x="591" y="500" type="line"/>
      <point x="504" y="500" type="line"/>
      <point x="492" y="431" type="line"/>
      <point x="484" y="431" type="line"/>
      <point x="463" y="477"/>
      <point x="410" y="510"/>
      <point x="339" y="510" type="curve" smooth="yes"/>
      <point x="171" y="510"/>
      <point x="70" y="352"/>
      <point x="70" y="193" type="curve" smooth="yes"/>
      <point x="70" y="69"/>
      <point x="144" y="4"/>
      <point x="250" y="4" type="curve" smooth="yes"/>
      <point x="321" y="4"/>
      <point x="380" y="38"/>
      <point x="415" y="79" type="curve"/>
      <point x="423" y="79" type="line"/>
      <point x="409" y="0" type="line" smooth="yes"/>
      <point x="391" y="-100"/>
      <point x="331" y="-131"/>
      <point x="246" y="-131" type="curve" smooth="yes"/>
      <point x="155" y="-131"/>
      <point x="122" y="-92"/>
      <point x="131" y="-40" type="curve"/>
      <point x="174" y="-49" type="line"/>
      <point x="-12" y="-49" type="line"/>
      <point x="35" y="-35" type="line"/>
      <point x="15" y="-149"/>
      <point x="98" y="-210"/>
    </contour>
    <contour>
      <point x="282" y="84" type="curve" smooth="yes"/>
      <point x="210" y="84"/>
      <point x="167" y="126"/>
      <point x="167" y="207" type="curve" smooth="yes"/>
      <point x="167" y="319"/>
      <point x="229" y="430"/>
      <point x="343" y="430" type="curve" smooth="yes"/>
      <point x="414" y="430"/>
      <point x="457" y="388"/>
      <point x="457" y="308" type="curve" smooth="yes"/>
      <point x="457" y="196"/>
      <point x="397" y="84"/>
    </contour>
  </outline>
</glyph>
<glyph name="hungarumlautcomb.case" format="2">
  <advance width="630"/>
  <anchor x="332" y="700" name="_top"/>
  <anchor x="425" y="871" name="top"/>
  <outline>
    <contour>
      <point x="428" y="871" type="line"/>
      <point x="311" y="871" type="line"/>
      <point x="216" y="751" type="line"/>
      <point x="296" y="751" type="line"/>
    </contour>
    <contour>
      <point x="612" y="871" type="line"/>
      <point x="495" y="871" type="line"/>
      <point x="400" y="751" type="line"/>
      <point x="480" y="751" type="line"/>
    </contour>
  </outline>
</glyph>
<glyph name="macroncomb.case" format="2">
  <advance width="630"/>
  <anchor x="395" y="700" name="_top"/>
  <anchor x="417" y="828" name="top"/>
  <outline>
    <contour>
      <point x="288" y="766" type="line"/>
      <point x="526" y="766" type="line"/>
      <point x="536" y="828" type="line"/>
      <point x="298" y="828" type="line"/>
    </contour>
  </outline>
</glyph>
<glyph name="nine.dnom" format="2">
  <advance width="630"/>
  <outline>
    <contour>
      <point x="276" y="-9" type="curve" smooth="yes"/>
      <point x="401" y="-9"/>
      <point x="442" y="111"/>
      <point x="442" y="203" type="curve" smooth="yes"/>
      <point x="442" y="295"/>
      <point x="391" y="340"/>
      <point x="315" y="340" type="curve" smooth="yes"/>
      <point x="236" y="340"/>
      <point x="171" y="298"/>
      <point x="171" y="213" type="curve" smooth="yes"/>
      <point x="171" y="154"/>
      <point x="217" y="121"/>
      <point x="279" y="121" type="curve" smooth="yes"/>
      <point x="310" y="121"/>
      <point x="343" y="134"/>
      <point x="362" y="153" type="curve"/>
      <point x="367" y="153" type="line"/>
      <point x="357" y="94"/>
      <point x="333" y="49"/>
      <point x="280" y="49" type="curve" smooth="yes"/>
      <point x="245" y="49"/>
      <point x="224" y="70"/>
      <point x="225" y="103" type="curve"/>
      <point x="250" y="94" type="line"/>
      <point x="128" y="94" type="line"/>
      <point x="153" y="107" type="line"/>
      <point x="152" y="39"/>
      <point x="195" y="-9"/>
    </contour>
    <contour>
      <point x="302" y="169" type="curve" smooth="yes"/>
      <point x="263" y="169"/>
      <point x="243" y="190"/>
      <point x="243" y="221" type="curve" smooth="yes"/>
      <point x="243" y="261"/>
      <point x="271" y="291"/>
      <point x="312" y="291" type="curve" smooth="yes"/>
      <point x="350" y="291"/>
      <point x="371" y="270"/>
      <point x="371" y="240" type="curve" smooth="yes"/>
      <point x="371" y="197"/>
      <point x="343" y="169"/>
    </contour>
  </outline>
</glyph>
<glyph name="one.dnom" format="2">
  <advance width="630"/>
  <outline>
    <contour>
      <point x="150" y="0" type="line"/>
      <point x="390" y="0" type="line"/>
      <point x="401" y="60" type="line"/>
      <point x="312" y="60" type="line"/>
      <point x="362" y="340" type="line"/>
      <point x="302" y="340" type="line"/>
      <point x="198" y="270" type="line"/>
      <point x="185" y="201" type="line"/>
      <point x="281" y="264" type="line"/>
      <point x="285" y="264" type="line"/>
      <point x="249" y="60" type="line"/>
      <point x="161" y="60" type="line"/>
    </contour>
  </outline>
</glyph>
<glyph name="parenleft.case" format="2">
  <advance width="630"/>
  <note>
parenleft.case
</note>
  <outline>
    <contour>
      <point x="329" y="0" type="curve"/>
      <point x="427" y="0" type="line"/>
      <point x="274" y="196"/>
      <point x="328" y="503"/>
      <point x="551" y="700" type="curve"/>
      <point x="453" y="700" type="line"/>
      <point x="239" y="503"/>
      <point x="185" y="197"/>
    </contour>
  </outline>
</glyph>
<glyph name="ringcomb.case" format="2">
  <advance width="630"/>
  <anchor x="392" y="700" name="_top"/>
  <anchor x="430" y="916" name="top"/>
  <outline>
    <contour>
      <point x="396" y="725" type="curve" smooth="yes"/>
      <point x="450" y="725"/>
      <point x="499" y="767"/>
      <point x="508" y="821" type="curve" smooth="yes"/>
      <point x="518" y="875"/>
      <point x="484" y="916"/>
      <point x="430" y="916" type="curve" smooth="yes"/>
      <point x="375" y="916"/>
      <point x="327" y="875"/>
      <point x="317" y="821" type="curve" smooth="yes"/>
      <point x="308" y="767"/>
      <point x="341" y="725"/>
    </contour>
    <contour>
      <point x="406" y="780" type="curve" smooth="yes"/>
      <point x="382" y="780"/>
      <point x="368" y="798"/>
      <point x="372" y="821" type="curve" smooth="yes"/>
      <point x="376" y="844"/>
      <point x="396" y="861"/>
      <point x="420" y="861" type="curve" smooth="yes"/>
      <point x="443" y="861"/>
      <point x="457" y="844"/>
      <point x="453" y="821" type="curve" smooth="yes"/>
      <point x="449" y="798"/>
      <point x="429" y="780"/>
    </contour>
  </outline>
</glyph>
<glyph name="seven.dnom" format="2">
  <advance width="630"/>
  <outline>
    <contour>
      <point x="380" y="280" type="line"/>
      <point x="380" y="277" type="line"/>
      <point x="311" y="221"/>
      <point x="252" y="131"/>
      <point x="232" y="17" type="curve" smooth="yes"/>
      <point x="229" y="0" type="line"/>
      <point x="299" y="0" type="line"/>
      <point x="302" y="15" type="line" smooth="yes"/>
      <point x="320" y="121"/>
      <point x="359" y="198"/>
      <point x="451" y="280" type="curve"/>
      <point x="462" y="340" type="line"/>
      <point x="199" y="340" type="line"/>
      <point x="188" y="280" type="line"/>
    </contour>
  </outline>
</glyph>
<glyph name="six.dnom" format="2">
  <advance width="630"/>
  <outline>
    <contour>
      <point x="238" y="178" type="curve"/>
      <point x="233" y="178" type="line"/>
      <point x="243" y="237"/>
      <point x="273" y="282"/>
      <point x="321" y="282" type="curve" smooth="yes"/>
      <point x="361" y="282"/>
      <point x="376" y="259"/>
      <point x="375" y="228" type="curve"/>
      <point x="350" y="237" type="line"/>
      <point x="472" y="237" type="line"/>
      <point x="447" y="224" type="line"/>
      <point x="448" y="272"/>
      <point x="429" y="340"/>
      <point x="330" y="340" type="curve" smooth="yes"/>
      <point x="205" y="340"/>
      <point x="158" y="220"/>
      <point x="158" y="128" type="curve" smooth="yes"/>
      <point x="158" y="36"/>
      <point x="209" y="-9"/>
      <point x="285" y="-9" type="curve" smooth="yes"/>
      <point x="364" y="-9"/>
      <point x="429" y="33"/>
      <point x="429" y="118" type="curve" smooth="yes"/>
      <point x="429" y="177"/>
      <point x="383" y="210"/>
      <point x="321" y="210" type="curve" smooth="yes"/>
      <point x="290" y="210"/>
      <point x="257" y="197"/>
    </contour>
    <contour>
      <point x="288" y="40" type="curve" smooth="yes"/>
      <point x="250" y="40"/>
      <point x="229" y="61"/>
      <point x="229" y="91" type="curve" smooth="yes"/>
      <point x="229" y="134"/>
      <point x="257" y="162"/>
      <point x="298" y="162" type="curve" smooth="yes"/>
      <point x="337" y="162"/>
      <point x="357" y="141"/>
      <point x="357" y="110" type="curve" smooth="yes"/>
      <point x="357" y="70"/>
      <point x="329" y="40"/>
    </contour>
  </outline>
</glyph>
<glyph name="slashshortcomb.case" format="2">
  <advance width="630"/>
  <note>
italisé les italic
</note>
  <anchor x="340" y="394" name="_center"/>
  <outline>
    <contour>
      <point x="176" y="279" type="line"/>
      <point x="490" y="426" type="line"/>
      <point x="504" y="508" type="line"/>
      <point x="190" y="360" type="line"/>
    </contour>
  </outline>
</glyph>
<glyph name="strokelongcomb.case" format="2">
  <advance width="630"/>
  <note>
italisé les italics
</note>
  <anchor x="380" y="605" name="_center"/>
  <outline>
    <contour>
      <point x="75" y="568" type="line"/>
      <point x="672" y="568" type="line"/>
      <point x="684" y="641" type="line"/>
      <point x="87" y="641" type="line"/>
    </contour>
  </outline>
</glyph>
<glyph name="three.dnom" format="2">
  <advance width="630"/>
  <outline>
    <contour>
      <point x="418" y="162" type="curve"/>
      <point x="418" y="166" type="line"/>
      <point x="447" y="179"/>
      <point x="478" y="209"/>
      <point x="478" y="254" type="curve" smooth="yes"/>
      <point x="478" y="304"/>
      <point x="436" y="339"/>
      <point x="363" y="339" type="curve" smooth="yes"/>
      <point x="289" y="339"/>
      <point x="228" y="295"/>
      <point x="222" y="221" type="curve"/>
      <point x="201" y="233" type="line"/>
      <point x="319" y="233" type="line"/>
      <point x="294" y="215" type="line"/>
      <point x="286" y="237"/>
      <point x="312" y="281"/>
      <point x="359" y="281" type="curve" smooth="yes"/>
      <point x="388" y="281"/>
      <point x="411" y="265"/>
      <point x="411" y="239" type="curve" smooth="yes"/>
      <point x="411" y="205"/>
      <point x="382" y="195"/>
      <point x="348" y="195" type="curve" smooth="yes"/>
      <point x="316" y="195" type="line"/>
      <point x="306" y="139" type="line"/>
      <point x="342" y="139" type="line" smooth="yes"/>
      <point x="376" y="139"/>
      <point x="390" y="123"/>
      <point x="390" y="102" type="curve" smooth="yes"/>
      <point x="390" y="65"/>
      <point x="361" y="46"/>
      <point x="325" y="46" type="curve" smooth="yes"/>
      <point x="273" y="46"/>
      <point x="255" y="79"/>
      <point x="264" y="118" type="curve"/>
      <point x="286" y="106" type="line"/>
      <point x="167" y="106" type="line"/>
      <point x="195" y="121" type="line"/>
      <point x="176" y="33"/>
      <point x="227" y="-10"/>
      <point x="318" y="-10" type="curve" smooth="yes"/>
      <point x="397" y="-10"/>
      <point x="455" y="34"/>
      <point x="455" y="98" type="curve" smooth="yes"/>
      <point x="455" y="130"/>
      <point x="435" y="151"/>
    </contour>
  </outline>
</glyph>
<glyph name="tildecomb.case" format="2">
  <advance width="630"/>
  <anchor x="395" y="700" name="_top"/>
  <anchor x="421" y="845" name="top"/>
  <outline>
    <contour>
      <point x="468" y="736" type="curve" smooth="yes"/>
      <point x="515" y="736"/>
      <point x="543" y="764"/>
      <point x="553" y="820" type="curve" smooth="yes"/>
      <point x="558" y="845" type="line"/>
      <point x="502" y="845" type="line"/>
      <point x="499" y="828" type="line" smooth="yes"/>
      <point x="495" y="809"/>
      <point x="487" y="799"/>
      <point x="474" y="799" type="curve" smooth="yes"/>
      <point x="461" y="799"/>
      <point x="450" y="806"/>
      <point x="436" y="816" type="curve" smooth="yes"/>
      <point x="416" y="829" type="line" smooth="yes"/>
      <point x="399" y="838"/>
      <point x="384" y="845"/>
      <point x="364" y="845" type="curve" smooth="yes"/>
      <point x="315" y="845"/>
      <point x="279" y="818"/>
      <point x="269" y="764" type="curve" smooth="yes"/>
      <point x="265" y="738" type="line"/>
      <point x="324" y="738" type="line"/>
      <point x="326" y="753" type="line" smooth="yes"/>
      <point x="330" y="771"/>
      <point x="338" y="782"/>
      <point x="355" y="782" type="curve" smooth="yes"/>
      <point x="367" y="782"/>
      <point x="375" y="777"/>
      <point x="384" y="770" type="curve" smooth="yes"/>
      <point x="411" y="754" type="line" smooth="yes"/>
      <point x="424" y="745"/>
      <point x="443" y="736"/>
    </contour>
  </outline>
</glyph>
<glyph name="two.dnom" format="2">
  <advance width="630"/>
  <outline>
    <contour>
      <point x="268" y="60" type="line"/>
      <point x="269" y="64" type="line"/>
      <point x="342" y="111" type="line" smooth="yes"/>
      <point x="401" y="149"/>
      <point x="440" y="180"/>
      <point x="440" y="252" type="curve" smooth="yes"/>
      <point x="440" y="313"/>
      <point x="389" y="345"/>
      <point x="324" y="345" type="curve" smooth="yes"/>
      <point x="245" y="345"/>
      <point x="178" y="301"/>
      <point x="178" y="200" type="curve"/>
      <point x="156" y="218" type="line"/>
      <point x="274" y="218" type="line"/>
      <point x="248" y="200" type="line"/>
      <point x="244" y="262"/>
      <point x="279" y="285"/>
      <point x="322" y="285" type="curve" smooth="yes"/>
      <point x="354" y="285"/>
      <point x="373" y="268"/>
      <point x="373" y="239" type="curve" smooth="yes"/>
      <point x="373" y="210"/>
      <point x="350" y="187"/>
      <point x="305" y="157" type="curve" smooth="yes"/>
      <point x="157" y="60" type="line"/>
      <point x="147" y="0" type="line"/>
      <point x="399" y="0" type="line"/>
      <point x="409" y="60" type="line"/>
    </contour>
  </outline>
</glyph>
<glyph name="u.001" format="2">
  <advance width="630"/>
  <anchor x="273" y="0" name="bottom"/>
  <anchor x="527" y="10" name="ogonek"/>
  <anchor x="361" y="500" name="top"/>
  <anchor x="656" y="500" name="topright"/>
  <outline>
    <contour>
      <point x="568" y="500" type="line"/>
      <point x="474" y="500" type="line"/>
      <point x="426" y="230" type="line" smooth="yes"/>
      <point x="407" y="118"/>
      <point x="349" y="70"/>
      <point x="276" y="70" type="curve" smooth="yes"/>
      <point x="206" y="70"/>
      <point x="173" y="106"/>
      <point x="193" y="216" type="curve" smooth="yes"/>
      <point x="243" y="500" type="line"/>
      <point x="149" y="500" type="line"/>
      <point x="96" y="202" type="line" smooth="yes"/>
      <point x="71" y="59"/>
      <point x="121" y="-10"/>
      <point x="227" y="-10" type="curve" smooth="yes"/>
      <point x="300" y="-10"/>
      <point x="359" y="22"/>
      <point x="397" y="75" type="curve"/>
      <point x="405" y="75" type="line"/>
      <point x="392" y="0" type="line"/>
      <point x="480" y="0" type="line"/>
    </contour>
  </outline>
</glyph>
<glyph name="zero.dnom" format="2">
  <advance width="630"/>
  <outline>
    <contour>
      <point x="283" y="-10" type="curve" smooth="yes"/>
      <point x="396" y="-10"/>
      <point x="451" y="98"/>
      <point x="451" y="205" type="curve" smooth="yes"/>
      <point x="451" y="293"/>
      <point x="401" y="340"/>
      <point x="318" y="340" type="curve" smooth="yes"/>
      <point x="203" y="340"/>
      <point x="149" y="229"/>
      <point x="149" y="126" type="curve" smooth="yes"/>
      <point x="149" y="37"/>
      <point x="200" y="-10"/>
    </contour>
    <contour>
      <point x="287" y="46" type="curve" smooth="yes"/>
      <point x="237" y="46"/>
      <point x="216" y="77"/>
      <point x="216" y="128" type="curve" smooth="yes"/>
      <point x="216" y="176"/>
      <point x="234" y="284"/>
      <point x="314" y="284" type="curve" smooth="yes"/>
      <point x="363" y="284"/>
      <point x="385" y="253"/>
      <point x="385" y="200" type="curve" smooth="yes"/>
      <point x="385" y="153"/>
      <point x="366" y="46"/>
    </contour>
    <contour>
      <point x="231" y="28" type="line"/>
      <point x="408" y="273" type="line"/>
      <point x="370" y="301" type="line"/>
      <point x="194" y="59" type="line"/>
    </contour>
  </outline>
</glyph>
